<svg xmlns="http://www.w3.org/2000/svg" width="805" height="600"><rect width="805" height="600" x="0" y="0" fill="#ffffff" id="background"/><g id="series"><g transform="translate(0,0)"><g transform="translate(50,50)" clip-path="url(#serieClipPath)"><g id="axis"><g transform="translate(0,500)" fill="none" font-size="10" font-family="sans-serif" text-anchor="middle"><path class="domain" stroke="currentColor" d="M0,6V0H705V6"/><g class="tick" opacity="1" transform="translate(0,0)"><line stroke="currentColor" y2="6"/><text fill="currentColor" y="9" dy="0.71em">1,940</text></g><g class="tick" opacity="1" transform="translate(78,0)"><line stroke="currentColor" y2="6"/><text fill="currentColor" y="9" dy="0.71em">1,950</text></g><g class="tick" opacity="1" transform="translate(157,0)"><line stroke="currentColor" y2="6"/><text fill="currentColor" y="9" dy="0.71em">1,960</text></g><g class="tick" opacity="1" transform="translate(235,0)"><line stroke="currentColor" y2="6"/><text fill="currentColor" y="9" dy="0.71em">1,970</text></g><g class="tick" opacity="1" transform="translate(313,0)"><line stroke="currentColor" y2="6"/><text fill="currentColor" y="9" dy="0.71em">1,980</text></g><g class="tick" opacity="1" transform="translate(392,0)"><line stroke="currentColor" y2="6"/><text fill="currentColor" y="9" dy="0.71em">1,990</text></g><g class="tick" opacity="1" transform="translate(470,0)"><line stroke="currentColor" y2="6"/><text fill="currentColor" y="9" dy="0.71em">2,000</text></g><g class="tick" opacity="1" transform="translate(548,0)"><line stroke="currentColor" y2="6"/><text fill="currentColor" y="9" dy="0.71em">2,010</text></g><g class="tick" opacity="1" transform="translate(627,0)"><line stroke="currentColor" y2="6"/><text fill="currentColor" y="9" dy="0.71em">2,020</text></g><g class="tick" opacity="1" transform="translate(705,0)"><line stroke="currentColor" y2="6"/><text fill="currentColor" y="9" dy="0.71em">2,030</text></g><text x="705" dy="-5" text-anchor="end" style="font-family: Arial, sans-serif; font-size: 12px; fill: rgb(123, 123, 123); font-weight: bold;">year</text></g><g fill="none" font-size="10" font-family="sans-serif" text-anchor="end"><path class="domain" stroke="currentColor" d="M-6,500H0V0H-6"/><g class="tick" opacity="1" transform="translate(0,500)"><line stroke="currentColor" x2="-6"/><text fill="currentColor" x="-9" dy="0.32em">0</text></g><g class="tick" opacity="1" transform="translate(0,462)"><line stroke="currentColor" x2="-6"/><text fill="currentColor" x="-9" dy="0.32em">100</text></g><g class="tick" opacity="1" transform="translate(0,423)"><line stroke="currentColor" x2="-6"/><text fill="currentColor" x="-9" dy="0.32em">200</text></g><g class="tick" opacity="1" transform="translate(0,385)"><line stroke="currentColor" x2="-6"/><text fill="currentColor" x="-9" dy="0.32em">300</text></g><g class="tick" opacity="1" transform="translate(0,346)"><line stroke="currentColor" x2="-6"/><text fill="currentColor" x="-9" dy="0.32em">400</text></g><g class="tick" opacity="1" transform="translate(0,308)"><line stroke="currentColor" x2="-6"/><text fill="currentColor" x="-9" dy="0.32em">500</text></g><g class="tick" opacity="1" transform="translate(0,269)"><line stroke="currentColor" x2="-6"/><text fill="currentColor" x="-9" dy="0.32em">600</text></g><g class="tick" opacity="1" transform="translate(0,231)"><line stroke="currentColor" x2="-6"/><text fill="currentColor" x="-9" dy="0.32em">700</text></g><g class="tick" opacity="1" transform="translate(0,192)"><line stroke="currentColor" x2="-6"/><text fill="currentColor" x="-9" dy="0.32em">800</text></g><g class="tick" opacity="1" transform="translate(0,154)"><line stroke="currentColor" x2="-6"/><text fill="currentColor" x="-9" dy="0.32em">900</text></g><g class="tick" opacity="1" transform="translate(0,115)"><line stroke="currentColor" x2="-6"/><text fill="currentColor" x="-9" dy="0.32em">1,000</text></g><g class="tick" opacity="1" transform="translate(0,77)"><line stroke="currentColor" x2="-6"/><text fill="currentColor" x="-9" dy="0.32em">1,100</text></g><g class="tick" opacity="1" transform="translate(0,38)"><line stroke="currentColor" x2="-6"/><text fill="currentColor" x="-9" dy="0.32em">1,200</text></g><g class="tick" opacity="1" transform="translate(0,0)"><line stroke="currentColor" x2="-6"/><text fill="currentColor" x="-9" dy="0.32em">1,300</text></g><text x="4" text-anchor="start" dominant-baseline="hanging" style="font-family: Arial, sans-serif; font-size: 12px; fill: rgb(123, 123, 123); font-weight: bold;">n_items</text></g></g><g id="viz"><g><circle cx="635" cy="16" fill="#ffffff" r="8" stroke="none"/></g><g><circle cx="642" cy="97" fill="#6c6e68" r="7" stroke="none"/></g><g><circle cx="627" cy="50" fill="#e4cd9e" r="7" stroke="none"/></g><g><circle cx="603" cy="108" fill="#6c6e68" r="6" stroke="none"/></g><g><circle cx="658" cy="253" fill="#05131d" r="5" stroke="none"/></g><g><circle cx="650" cy="100" fill="#6c6e68" r="5" stroke="none"/></g><g><circle cx="619" cy="85" fill="#6c6e68" r="5" stroke="none"/></g><g><circle cx="611" cy="123" fill="#e4cd9e" r="5" stroke="none"/></g><g><circle cx="548" cy="280" fill="#6c6e68" r="5" stroke="none"/></g><g><circle cx="533" cy="310" fill="#ffffff" r="5" stroke="none"/></g><g><circle cx="525" cy="305" fill="#6c6e68" r="5" stroke="none"/></g><g><circle cx="509" cy="328" fill="#05131d" r="5" stroke="none"/></g><g><circle cx="493" cy="291" fill="#05131d" r="5" stroke="none"/></g><g><circle cx="572" cy="198" fill="#e4cd9e" r="4" stroke="none"/></g><g><circle cx="556" cy="243" fill="#6c6e68" r="4" stroke="none"/></g><g><circle cx="541" cy="279" fill="#ffffff" r="4" stroke="none"/></g><g><circle cx="486" cy="272" fill="#6c6e68" r="4" stroke="none"/></g><g><circle cx="470" cy="340" fill="#237841" r="4" stroke="none"/></g><g><circle cx="517" cy="323" fill="#f2cd37" r="3" stroke="none"/></g><g><circle cx="478" cy="317" fill="#05131d" r="3" stroke="none"/></g><g><circle cx="462" cy="355" fill="#05131d" r="3" stroke="none"/></g><g><circle cx="454" cy="338" fill="#6c6e68" r="3" stroke="none"/></g><g><circle cx="447" cy="389" fill="#c91a09" r="3" stroke="none"/></g><g><circle cx="439" cy="420" fill="#c91a09" r="3" stroke="none"/></g><g><circle cx="431" cy="423" fill="#6c6e68" r="3" stroke="none"/></g><g><circle cx="423" cy="431" fill="#05131d" r="3" stroke="none"/></g><g><circle cx="400" cy="433" fill="#c91a09" r="3" stroke="none"/></g><g><circle cx="392" cy="452" fill="#05131d" r="3" stroke="none"/></g><g><circle cx="353" cy="427" fill="#05131d" r="3" stroke="none"/></g><g><circle cx="415" cy="444" fill="#05131d" r="2" stroke="none"/></g><g><circle cx="407" cy="443" fill="#05131d" r="2" stroke="none"/></g><g><circle cx="384" cy="442" fill="#05131d" r="2" stroke="none"/></g><g><circle cx="376" cy="467" fill="#6c6e68" r="2" stroke="none"/></g><g><circle cx="368" cy="408" fill="#c91a09" r="2" stroke="none"/></g><g><circle cx="360" cy="433" fill="#6c6e68" r="2" stroke="none"/></g><g><circle cx="345" cy="462" fill="#05131d" r="2" stroke="none"/></g><g><circle cx="337" cy="470" fill="#05131d" r="2" stroke="none"/></g><g><circle cx="329" cy="465" fill="#c91a09" r="2" stroke="none"/></g><g><circle cx="321" cy="465" fill="#f2cd37" r="2" stroke="none"/></g><g><circle cx="313" cy="452" fill="#6c6e68" r="2" stroke="none"/></g><g><circle cx="306" cy="460" fill="#f2cd37" r="2" stroke="none"/></g><g><circle cx="298" cy="469" fill="#05131d" r="2" stroke="none"/></g><g><circle cx="290" cy="455" fill="#c91a09" r="2" stroke="none"/></g><g><circle cx="282" cy="469" fill="#c91a09" r="2" stroke="none"/></g><g><circle cx="274" cy="484" fill="#c91a09" r="2" stroke="none"/></g><g><circle cx="259" cy="471" fill="#c91a09" r="2" stroke="none"/></g><g><circle cx="251" cy="483" fill="#0055bf" r="2" stroke="none"/></g><g><circle cx="251" cy="483" fill="#c91a09" r="2" stroke="none"/></g><g><circle cx="251" cy="483" fill="#ffffff" r="2" stroke="none"/></g><g><circle cx="251" cy="483" fill="#f2cd37" r="2" stroke="none"/></g><g><circle cx="243" cy="477" fill="#ffffff" r="2" stroke="none"/></g><g><circle cx="235" cy="482" fill="#ffffff" r="2" stroke="none"/></g><g><circle cx="227" cy="463" fill="#ffffff" r="2" stroke="none"/></g><g><circle cx="219" cy="483" fill="#c91a09" r="2" stroke="none"/></g><g><circle cx="212" cy="487" fill="#c91a09" r="2" stroke="none"/></g><g><circle cx="204" cy="422" fill="#c91a09" r="2" stroke="none"/></g><g><circle cx="180" cy="409" fill="#c91a09" r="2" stroke="none"/></g><g><circle cx="172" cy="475" fill="#ffffff" r="2" stroke="none"/></g><g><circle cx="165" cy="475" fill="#ffffff" r="2" stroke="none"/></g><g><circle cx="157" cy="499" fill="#ffffff" r="2" stroke="none"/></g><g><circle cx="266" cy="485" fill="#c91a09" r="1" stroke="none"/></g><g><circle cx="196" cy="480" fill="#0055bf" r="1" stroke="none"/></g><g><circle cx="188" cy="457" fill="#c91a09" r="1" stroke="none"/></g><g><circle cx="141" cy="448" fill="#ffffff" r="1" stroke="none"/></g><g><circle cx="133" cy="487" fill="#c91a09" r="1" stroke="none"/></g><g><circle cx="125" cy="492" fill="#ffffff" r="1" stroke="none"/></g><g><circle cx="118" cy="468" fill="#ffffff" r="1" stroke="none"/></g><g><circle cx="110" cy="477" fill="#c91a09" r="1" stroke="none"/></g><g><circle cx="71" cy="497" fill="#237841" r="1" stroke="none"/></g><g><circle cx="149" cy="498" fill="#0055bf" r="0" stroke="none"/></g><g><circle cx="102" cy="495" fill="#237841" r="0" stroke="none"/></g><g><circle cx="102" cy="495" fill="#f2cd37" r="0" stroke="none"/></g><g><circle cx="102" cy="495" fill="#ffffff" r="0" stroke="none"/></g><g><circle cx="102" cy="495" fill="#c91a09" r="0" stroke="none"/></g><g><circle cx="78" cy="492" fill="#237841" r="0" stroke="none"/></g><g id="labels"><g transform="translate(635,16)"><text x="0" y="0" text-anchor="middle" dominant-baseline="text-before-edge" transform="translate(0,0)" style="stroke-width: 2px; paint-order: stroke; stroke: white; stroke-linecap: round; stroke-linejoin: round;"><tspan x="0" y="0" dy="0"/></text></g><g transform="translate(642,97)"><text x="0" y="0" text-anchor="middle" dominant-baseline="text-before-edge" transform="translate(0,0)" style="stroke-width: 2px; paint-order: stroke; stroke: white; stroke-linecap: round; stroke-linejoin: round;"><tspan x="0" y="0" dy="0"/></text></g><g transform="translate(627,50)"><text x="0" y="0" text-anchor="middle" dominant-baseline="text-before-edge" transform="translate(0,0)" style="stroke-width: 2px; paint-order: stroke; stroke: white; stroke-linecap: round; stroke-linejoin: round;"><tspan x="0" y="0" dy="0"/></text></g><g transform="translate(603,108)"><text x="0" y="0" text-anchor="middle" dominant-baseline="text-before-edge" transform="translate(0,0)" style="stroke-width: 2px; paint-order: stroke; stroke: white; stroke-linecap: round; stroke-linejoin: round;"><tspan x="0" y="0" dy="0"/></text></g><g transform="translate(658,253)"><text x="0" y="0" text-anchor="middle" dominant-baseline="text-before-edge" transform="translate(0,0)" style="stroke-width: 2px; paint-order: stroke; stroke: white; stroke-linecap: round; stroke-linejoin: round;"><tspan x="0" y="0" dy="0"/></text></g><g transform="translate(650,100)"><text x="0" y="0" text-anchor="middle" dominant-baseline="text-before-edge" transform="translate(0,0)" style="stroke-width: 2px; paint-order: stroke; stroke: white; stroke-linecap: round; stroke-linejoin: round;"><tspan x="0" y="0" dy="0"/></text></g><g transform="translate(619,85)"><text x="0" y="0" text-anchor="middle" dominant-baseline="text-before-edge" transform="translate(0,0)" style="stroke-width: 2px; paint-order: stroke; stroke: white; stroke-linecap: round; stroke-linejoin: round;"><tspan x="0" y="0" dy="0"/></text></g><g transform="translate(611,123)"><text x="0" y="0" text-anchor="middle" dominant-baseline="text-before-edge" transform="translate(0,0)" style="stroke-width: 2px; paint-order: stroke; stroke: white; stroke-linecap: round; stroke-linejoin: round;"><tspan x="0" y="0" dy="0"/></text></g><g transform="translate(548,280)"><text x="0" y="0" text-anchor="middle" dominant-baseline="text-before-edge" transform="translate(0,0)" style="stroke-width: 2px; paint-order: stroke; stroke: white; stroke-linecap: round; stroke-linejoin: round;"><tspan x="0" y="0" dy="0"/></text></g><g transform="translate(533,310)"><text x="0" y="0" text-anchor="middle" dominant-baseline="text-before-edge" transform="translate(0,0)" style="stroke-width: 2px; paint-order: stroke; stroke: white; stroke-linecap: round; stroke-linejoin: round;"><tspan x="0" y="0" dy="0"/></text></g><g transform="translate(525,305)"><text x="0" y="0" text-anchor="middle" dominant-baseline="text-before-edge" transform="translate(0,0)" style="stroke-width: 2px; paint-order: stroke; stroke: white; stroke-linecap: round; stroke-linejoin: round;"><tspan x="0" y="0" dy="0"/></text></g><g transform="translate(509,328)"><text x="0" y="0" text-anchor="middle" dominant-baseline="text-before-edge" transform="translate(0,0)" style="stroke-width: 2px; paint-order: stroke; stroke: white; stroke-linecap: round; stroke-linejoin: round;"><tspan x="0" y="0" dy="0"/></text></g><g transform="translate(493,291)"><text x="0" y="0" text-anchor="middle" dominant-baseline="text-before-edge" transform="translate(0,0)" style="stroke-width: 2px; paint-order: stroke; stroke: white; stroke-linecap: round; stroke-linejoin: round;"><tspan x="0" y="0" dy="0"/></text></g><g transform="translate(572,198)"><text x="0" y="0" text-anchor="middle" dominant-baseline="text-before-edge" transform="translate(0,0)" style="stroke-width: 2px; paint-order: stroke; stroke: white; stroke-linecap: round; stroke-linejoin: round;"><tspan x="0" y="0" dy="0"/></text></g><g transform="translate(556,243)"><text x="0" y="0" text-anchor="middle" dominant-baseline="text-before-edge" transform="translate(0,0)" style="stroke-width: 2px; paint-order: stroke; stroke: white; stroke-linecap: round; stroke-linejoin: round;"><tspan x="0" y="0" dy="0"/></text></g><g transform="translate(541,279)"><text x="0" y="0" text-anchor="middle" dominant-baseline="text-before-edge" transform="translate(0,0)" style="stroke-width: 2px; paint-order: stroke; stroke: white; stroke-linecap: round; stroke-linejoin: round;"><tspan x="0" y="0" dy="0"/></text></g><g transform="translate(486,272)"><text x="0" y="0" text-anchor="middle" dominant-baseline="text-before-edge" transform="translate(0,0)" style="stroke-width: 2px; paint-order: stroke; stroke: white; stroke-linecap: round; stroke-linejoin: round;"><tspan x="0" y="0" dy="0"/></text></g><g transform="translate(470,340)"><text x="0" y="0" text-anchor="middle" dominant-baseline="text-before-edge" transform="translate(0,0)" style="stroke-width: 2px; paint-order: stroke; stroke: white; stroke-linecap: round; stroke-linejoin: round;"><tspan x="0" y="0" dy="0"/></text></g><g transform="translate(517,323)"><text x="0" y="0" text-anchor="middle" dominant-baseline="text-before-edge" transform="translate(0,0)" style="stroke-width: 2px; paint-order: stroke; stroke: white; stroke-linecap: round; stroke-linejoin: round;"><tspan x="0" y="0" dy="0"/></text></g><g transform="translate(478,317)"><text x="0" y="0" text-anchor="middle" dominant-baseline="text-before-edge" transform="translate(0,0)" style="stroke-width: 2px; paint-order: stroke; stroke: white; stroke-linecap: round; stroke-linejoin: round;"><tspan x="0" y="0" dy="0"/></text></g><g transform="translate(462,355)"><text x="0" y="0" text-anchor="middle" dominant-baseline="text-before-edge" transform="translate(0,0)" style="stroke-width: 2px; paint-order: stroke; stroke: white; stroke-linecap: round; stroke-linejoin: round;"><tspan x="0" y="0" dy="0"/></text></g><g transform="translate(454,338)"><text x="0" y="0" text-anchor="middle" dominant-baseline="text-before-edge" transform="translate(0,0)" style="stroke-width: 2px; paint-order: stroke; stroke: white; stroke-linecap: round; stroke-linejoin: round;"><tspan x="0" y="0" dy="0"/></text></g><g transform="translate(447,389)"><text x="0" y="0" text-anchor="middle" dominant-baseline="text-before-edge" transform="translate(0,0)" style="stroke-width: 2px; paint-order: stroke; stroke: white; stroke-linecap: round; stroke-linejoin: round;"><tspan x="0" y="0" dy="0"/></text></g><g transform="translate(439,420)"><text x="0" y="0" text-anchor="middle" dominant-baseline="text-before-edge" transform="translate(0,0)" style="stroke-width: 2px; paint-order: stroke; stroke: white; stroke-linecap: round; stroke-linejoin: round;"><tspan x="0" y="0" dy="0"/></text></g><g transform="translate(431,423)"><text x="0" y="0" text-anchor="middle" dominant-baseline="text-before-edge" transform="translate(0,0)" style="stroke-width: 2px; paint-order: stroke; stroke: white; stroke-linecap: round; stroke-linejoin: round;"><tspan x="0" y="0" dy="0"/></text></g><g transform="translate(423,431)"><text x="0" y="0" text-anchor="middle" dominant-baseline="text-before-edge" transform="translate(0,0)" style="stroke-width: 2px; paint-order: stroke; stroke: white; stroke-linecap: round; stroke-linejoin: round;"><tspan x="0" y="0" dy="0"/></text></g><g transform="translate(400,433)"><text x="0" y="0" text-anchor="middle" dominant-baseline="text-before-edge" transform="translate(0,0)" style="stroke-width: 2px; paint-order: stroke; stroke: white; stroke-linecap: round; stroke-linejoin: round;"><tspan x="0" y="0" dy="0"/></text></g><g transform="translate(392,452)"><text x="0" y="0" text-anchor="middle" dominant-baseline="text-before-edge" transform="translate(0,0)" style="stroke-width: 2px; paint-order: stroke; stroke: white; stroke-linecap: round; stroke-linejoin: round;"><tspan x="0" y="0" dy="0"/></text></g><g transform="translate(353,427)"><text x="0" y="0" text-anchor="middle" dominant-baseline="text-before-edge" transform="translate(0,0)" style="stroke-width: 2px; paint-order: stroke; stroke: white; stroke-linecap: round; stroke-linejoin: round;"><tspan x="0" y="0" dy="0"/></text></g><g transform="translate(415,444)"><text x="0" y="0" text-anchor="middle" dominant-baseline="text-before-edge" transform="translate(0,0)" style="stroke-width: 2px; paint-order: stroke; stroke: white; stroke-linecap: round; stroke-linejoin: round;"><tspan x="0" y="0" dy="0"/></text></g><g transform="translate(407,443)"><text x="0" y="0" text-anchor="middle" dominant-baseline="text-before-edge" transform="translate(0,0)" style="stroke-width: 2px; paint-order: stroke; stroke: white; stroke-linecap: round; stroke-linejoin: round;"><tspan x="0" y="0" dy="0"/></text></g><g transform="translate(384,442)"><text x="0" y="0" text-anchor="middle" dominant-baseline="text-before-edge" transform="translate(0,0)" style="stroke-width: 2px; paint-order: stroke; stroke: white; stroke-linecap: round; stroke-linejoin: round;"><tspan x="0" y="0" dy="0"/></text></g><g transform="translate(376,467)"><text x="0" y="0" text-anchor="middle" dominant-baseline="text-before-edge" transform="translate(0,0)" style="stroke-width: 2px; paint-order: stroke; stroke: white; stroke-linecap: round; stroke-linejoin: round;"><tspan x="0" y="0" dy="0"/></text></g><g transform="translate(368,408)"><text x="0" y="0" text-anchor="middle" dominant-baseline="text-before-edge" transform="translate(0,0)" style="stroke-width: 2px; paint-order: stroke; stroke: white; stroke-linecap: round; stroke-linejoin: round;"><tspan x="0" y="0" dy="0"/></text></g><g transform="translate(360,433)"><text x="0" y="0" text-anchor="middle" dominant-baseline="text-before-edge" transform="translate(0,0)" style="stroke-width: 2px; paint-order: stroke; stroke: white; stroke-linecap: round; stroke-linejoin: round;"><tspan x="0" y="0" dy="0"/></text></g><g transform="translate(345,462)"><text x="0" y="0" text-anchor="middle" dominant-baseline="text-before-edge" transform="translate(0,0)" style="stroke-width: 2px; paint-order: stroke; stroke: white; stroke-linecap: round; stroke-linejoin: round;"><tspan x="0" y="0" dy="0"/></text></g><g transform="translate(337,470)"><text x="0" y="0" text-anchor="middle" dominant-baseline="text-before-edge" transform="translate(0,0)" style="stroke-width: 2px; paint-order: stroke; stroke: white; stroke-linecap: round; stroke-linejoin: round;"><tspan x="0" y="0" dy="0"/></text></g><g transform="translate(329,465)"><text x="0" y="0" text-anchor="middle" dominant-baseline="text-before-edge" transform="translate(0,0)" style="stroke-width: 2px; paint-order: stroke; stroke: white; stroke-linecap: round; stroke-linejoin: round;"><tspan x="0" y="0" dy="0"/></text></g><g transform="translate(321,465)"><text x="0" y="0" text-anchor="middle" dominant-baseline="text-before-edge" transform="translate(0,0)" style="stroke-width: 2px; paint-order: stroke; stroke: white; stroke-linecap: round; stroke-linejoin: round;"><tspan x="0" y="0" dy="0"/></text></g><g transform="translate(313,452)"><text x="0" y="0" text-anchor="middle" dominant-baseline="text-before-edge" transform="translate(0,0)" style="stroke-width: 2px; paint-order: stroke; stroke: white; stroke-linecap: round; stroke-linejoin: round;"><tspan x="0" y="0" dy="0"/></text></g><g transform="translate(306,460)"><text x="0" y="0" text-anchor="middle" dominant-baseline="text-before-edge" transform="translate(0,0)" style="stroke-width: 2px; paint-order: stroke; stroke: white; stroke-linecap: round; stroke-linejoin: round;"><tspan x="0" y="0" dy="0"/></text></g><g transform="translate(298,469)"><text x="0" y="0" text-anchor="middle" dominant-baseline="text-before-edge" transform="translate(0,0)" style="stroke-width: 2px; paint-order: stroke; stroke: white; stroke-linecap: round; stroke-linejoin: round;"><tspan x="0" y="0" dy="0"/></text></g><g transform="translate(290,455)"><text x="0" y="0" text-anchor="middle" dominant-baseline="text-before-edge" transform="translate(0,0)" style="stroke-width: 2px; paint-order: stroke; stroke: white; stroke-linecap: round; stroke-linejoin: round;"><tspan x="0" y="0" dy="0"/></text></g><g transform="translate(282,469)"><text x="0" y="0" text-anchor="middle" dominant-baseline="text-before-edge" transform="translate(0,0)" style="stroke-width: 2px; paint-order: stroke; stroke: white; stroke-linecap: round; stroke-linejoin: round;"><tspan x="0" y="0" dy="0"/></text></g><g transform="translate(274,484)"><text x="0" y="0" text-anchor="middle" dominant-baseline="text-before-edge" transform="translate(0,0)" style="stroke-width: 2px; paint-order: stroke; stroke: white; stroke-linecap: round; stroke-linejoin: round;"><tspan x="0" y="0" dy="0"/></text></g><g transform="translate(259,471)"><text x="0" y="0" text-anchor="middle" dominant-baseline="text-before-edge" transform="translate(0,0)" style="stroke-width: 2px; paint-order: stroke; stroke: white; stroke-linecap: round; stroke-linejoin: round;"><tspan x="0" y="0" dy="0"/></text></g><g transform="translate(251,483)"><text x="0" y="0" text-anchor="middle" dominant-baseline="text-before-edge" transform="translate(0,0)" style="stroke-width: 2px; paint-order: stroke; stroke: white; stroke-linecap: round; stroke-linejoin: round;"><tspan x="0" y="0" dy="0"/></text></g><g transform="translate(251,483)"><text x="0" y="0" text-anchor="middle" dominant-baseline="text-before-edge" transform="translate(0,0)" style="stroke-width: 2px; paint-order: stroke; stroke: white; stroke-linecap: round; stroke-linejoin: round;"><tspan x="0" y="0" dy="0"/></text></g><g transform="translate(251,483)"><text x="0" y="0" text-anchor="middle" dominant-baseline="text-before-edge" transform="translate(0,0)" style="stroke-width: 2px; paint-order: stroke; stroke: white; stroke-linecap: round; stroke-linejoin: round;"><tspan x="0" y="0" dy="0"/></text></g><g transform="translate(251,483)"><text x="0" y="0" text-anchor="middle" dominant-baseline="text-before-edge" transform="translate(0,0)" style="stroke-width: 2px; paint-order: stroke; stroke: white; stroke-linecap: round; stroke-linejoin: round;"><tspan x="0" y="0" dy="0"/></text></g><g transform="translate(243,477)"><text x="0" y="0" text-anchor="middle" dominant-baseline="text-before-edge" transform="translate(0,0)" style="stroke-width: 2px; paint-order: stroke; stroke: white; stroke-linecap: round; stroke-linejoin: round;"><tspan x="0" y="0" dy="0"/></text></g><g transform="translate(235,482)"><text x="0" y="0" text-anchor="middle" dominant-baseline="text-before-edge" transform="translate(0,0)" style="stroke-width: 2px; paint-order: stroke; stroke: white; stroke-linecap: round; stroke-linejoin: round;"><tspan x="0" y="0" dy="0"/></text></g><g transform="translate(227,463)"><text x="0" y="0" text-anchor="middle" dominant-baseline="text-before-edge" transform="translate(0,0)" style="stroke-width: 2px; paint-order: stroke; stroke: white; stroke-linecap: round; stroke-linejoin: round;"><tspan x="0" y="0" dy="0"/></text></g><g transform="translate(219,483)"><text x="0" y="0" text-anchor="middle" dominant-baseline="text-before-edge" transform="translate(0,0)" style="stroke-width: 2px; paint-order: stroke; stroke: white; stroke-linecap: round; stroke-linejoin: round;"><tspan x="0" y="0" dy="0"/></text></g><g transform="translate(212,487)"><text x="0" y="0" text-anchor="middle" dominant-baseline="text-before-edge" transform="translate(0,0)" style="stroke-width: 2px; paint-order: stroke; stroke: white; stroke-linecap: round; stroke-linejoin: round;"><tspan x="0" y="0" dy="0"/></text></g><g transform="translate(204,422)"><text x="0" y="0" text-anchor="middle" dominant-baseline="text-before-edge" transform="translate(0,0)" style="stroke-width: 2px; paint-order: stroke; stroke: white; stroke-linecap: round; stroke-linejoin: round;"><tspan x="0" y="0" dy="0"/></text></g><g transform="translate(180,409)"><text x="0" y="0" text-anchor="middle" dominant-baseline="text-before-edge" transform="translate(0,0)" style="stroke-width: 2px; paint-order: stroke; stroke: white; stroke-linecap: round; stroke-linejoin: round;"><tspan x="0" y="0" dy="0"/></text></g><g transform="translate(172,475)"><text x="0" y="0" text-anchor="middle" dominant-baseline="text-before-edge" transform="translate(0,0)" style="stroke-width: 2px; paint-order: stroke; stroke: white; stroke-linecap: round; stroke-linejoin: round;"><tspan x="0" y="0" dy="0"/></text></g><g transform="translate(165,475)"><text x="0" y="0" text-anchor="middle" dominant-baseline="text-before-edge" transform="translate(0,0)" style="stroke-width: 2px; paint-order: stroke; stroke: white; stroke-linecap: round; stroke-linejoin: round;"><tspan x="0" y="0" dy="0"/></text></g><g transform="translate(157,499)"><text x="0" y="0" text-anchor="middle" dominant-baseline="text-before-edge" transform="translate(0,0)" style="stroke-width: 2px; paint-order: stroke; stroke: white; stroke-linecap: round; stroke-linejoin: round;"><tspan x="0" y="0" dy="0"/></text></g><g transform="translate(266,485)"><text x="0" y="0" text-anchor="middle" dominant-baseline="text-before-edge" transform="translate(0,0)" style="stroke-width: 2px; paint-order: stroke; stroke: white; stroke-linecap: round; stroke-linejoin: round;"><tspan x="0" y="0" dy="0"/></text></g><g transform="translate(196,480)"><text x="0" y="0" text-anchor="middle" dominant-baseline="text-before-edge" transform="translate(0,0)" style="stroke-width: 2px; paint-order: stroke; stroke: white; stroke-linecap: round; stroke-linejoin: round;"><tspan x="0" y="0" dy="0"/></text></g><g transform="translate(188,457)"><text x="0" y="0" text-anchor="middle" dominant-baseline="text-before-edge" transform="translate(0,0)" style="stroke-width: 2px; paint-order: stroke; stroke: white; stroke-linecap: round; stroke-linejoin: round;"><tspan x="0" y="0" dy="0"/></text></g><g transform="translate(141,448)"><text x="0" y="0" text-anchor="middle" dominant-baseline="text-before-edge" transform="translate(0,0)" style="stroke-width: 2px; paint-order: stroke; stroke: white; stroke-linecap: round; stroke-linejoin: round;"><tspan x="0" y="0" dy="0"/></text></g><g transform="translate(133,487)"><text x="0" y="0" text-anchor="middle" dominant-baseline="text-before-edge" transform="translate(0,0)" style="stroke-width: 2px; paint-order: stroke; stroke: white; stroke-linecap: round; stroke-linejoin: round;"><tspan x="0" y="0" dy="0"/></text></g><g transform="translate(125,492)"><text x="0" y="0" text-anchor="middle" dominant-baseline="text-before-edge" transform="translate(0,0)" style="stroke-width: 2px; paint-order: stroke; stroke: white; stroke-linecap: round; stroke-linejoin: round;"><tspan x="0" y="0" dy="0"/></text></g><g transform="translate(118,468)"><text x="0" y="0" text-anchor="middle" dominant-baseline="text-before-edge" transform="translate(0,0)" style="stroke-width: 2px; paint-order: stroke; stroke: white; stroke-linecap: round; stroke-linejoin: round;"><tspan x="0" y="0" dy="0"/></text></g><g transform="translate(110,477)"><text x="0" y="0" text-anchor="middle" dominant-baseline="text-before-edge" transform="translate(0,0)" style="stroke-width: 2px; paint-order: stroke; stroke: white; stroke-linecap: round; stroke-linejoin: round;"><tspan x="0" y="0" dy="0"/></text></g><g transform="translate(71,497)"><text x="0" y="0" text-anchor="middle" dominant-baseline="text-before-edge" transform="translate(0,0)" style="stroke-width: 2px; paint-order: stroke; stroke: white; stroke-linecap: round; stroke-linejoin: round;"><tspan x="0" y="0" dy="0"/></text></g><g transform="translate(149,498)"><text x="0" y="0" text-anchor="middle" dominant-baseline="text-before-edge" transform="translate(0,0)" style="stroke-width: 2px; paint-order: stroke; stroke: white; stroke-linecap: round; stroke-linejoin: round;"><tspan x="0" y="0" dy="0"/></text></g><g transform="translate(102,495)"><text x="0" y="0" text-anchor="middle" dominant-baseline="text-before-edge" transform="translate(0,0)" style="stroke-width: 2px; paint-order: stroke; stroke: white; stroke-linecap: round; stroke-linejoin: round;"><tspan x="0" y="0" dy="0"/></text></g><g transform="translate(102,495)"><text x="0" y="0" text-anchor="middle" dominant-baseline="text-before-edge" transform="translate(0,0)" style="stroke-width: 2px; paint-order: stroke; stroke: white; stroke-linecap: round; stroke-linejoin: round;"><tspan x="0" y="0" dy="0"/></text></g><g transform="translate(102,495)"><text x="0" y="0" text-anchor="middle" dominant-baseline="text-before-edge" transform="translate(0,0)" style="stroke-width: 2px; paint-order: stroke; stroke: white; stroke-linecap: round; stroke-linejoin: round;"><tspan x="0" y="0" dy="0"/></text></g><g transform="translate(102,495)"><text x="0" y="0" text-anchor="middle" dominant-baseline="text-before-edge" transform="translate(0,0)" style="stroke-width: 2px; paint-order: stroke; stroke: white; stroke-linecap: round; stroke-linejoin: round;"><tspan x="0" y="0" dy="0"/></text></g><g transform="translate(78,492)"><text x="0" y="0" text-anchor="middle" dominant-baseline="text-before-edge" transform="translate(0,0)" style="stroke-width: 2px; paint-order: stroke; stroke: white; stroke-linecap: round; stroke-linejoin: round;"><tspan x="0" y="0" dy="0"/></text></g></g></g></g><text y="4" x="4" style="font-family: Arial, sans-serif; font-size: 12px; fill: black; font-weight: bold; dominant-baseline: hanging;"/></g></g><g id="grid"><rect x="0" y="0" width="805" height="600" fill="none" stroke="#ccc"/></g><clipPath id="serieClipPath"><rect x="-50" y="-50" width="805" height="600"/></clipPath></svg>