<svg xmlns="http://www.w3.org/2000/svg" width="1400" height="2500"><rect width="1400" height="2500" x="0" y="0" fill="#FFFFFF" id="background"/><g id="series"><g transform="translate(0,0)"><g transform="translate(50,50)" clip-path="url(#serieClipPath)"><g id="axis"><g transform="translate(0,2400)" fill="none" font-size="10" font-family="sans-serif" text-anchor="middle"><path class="domain" stroke="currentColor" d="M0,6V0H1100V6"/><g class="tick" opacity="1" transform="translate(0,0)"><line stroke="currentColor" y2="6"/><text fill="currentColor" y="9" dy="0.71em">1,960</text></g><g class="tick" opacity="1" transform="translate(85,0)"><line stroke="currentColor" y2="6"/><text fill="currentColor" y="9" dy="0.71em">1,965</text></g><g class="tick" opacity="1" transform="translate(169,0)"><line stroke="currentColor" y2="6"/><text fill="currentColor" y="9" dy="0.71em">1,970</text></g><g class="tick" opacity="1" transform="translate(254,0)"><line stroke="currentColor" y2="6"/><text fill="currentColor" y="9" dy="0.71em">1,975</text></g><g class="tick" opacity="1" transform="translate(338,0)"><line stroke="currentColor" y2="6"/><text fill="currentColor" y="9" dy="0.71em">1,980</text></g><g class="tick" opacity="1" transform="translate(423,0)"><line stroke="currentColor" y2="6"/><text fill="currentColor" y="9" dy="0.71em">1,985</text></g><g class="tick" opacity="1" transform="translate(508,0)"><line stroke="currentColor" y2="6"/><text fill="currentColor" y="9" dy="0.71em">1,990</text></g><g class="tick" opacity="1" transform="translate(592,0)"><line stroke="currentColor" y2="6"/><text fill="currentColor" y="9" dy="0.71em">1,995</text></g><g class="tick" opacity="1" transform="translate(677,0)"><line stroke="currentColor" y2="6"/><text fill="currentColor" y="9" dy="0.71em">2,000</text></g><g class="tick" opacity="1" transform="translate(762,0)"><line stroke="currentColor" y2="6"/><text fill="currentColor" y="9" dy="0.71em">2,005</text></g><g class="tick" opacity="1" transform="translate(846,0)"><line stroke="currentColor" y2="6"/><text fill="currentColor" y="9" dy="0.71em">2,010</text></g><g class="tick" opacity="1" transform="translate(931,0)"><line stroke="currentColor" y2="6"/><text fill="currentColor" y="9" dy="0.71em">2,015</text></g><g class="tick" opacity="1" transform="translate(1015,0)"><line stroke="currentColor" y2="6"/><text fill="currentColor" y="9" dy="0.71em">2,020</text></g><g class="tick" opacity="1" transform="translate(1100,0)"><line stroke="currentColor" y2="6"/><text fill="currentColor" y="9" dy="0.71em">2,025</text></g><text x="1100" dy="-5" text-anchor="end" style="font-family: Arial, sans-serif; font-size: 12px; fill: rgb(123, 123, 123); font-weight: bold;">year</text></g><g fill="none" font-size="10" font-family="sans-serif" text-anchor="end"><path class="domain" stroke="currentColor" d="M-6,2400H0V0H-6"/><g class="tick" opacity="1" transform="translate(0,2400)"><line stroke="currentColor" x2="-6"/><text fill="currentColor" x="-9" dy="0.32em">0</text></g><g class="tick" opacity="1" transform="translate(0,2160)"><line stroke="currentColor" x2="-6"/><text fill="currentColor" x="-9" dy="0.32em">20</text></g><g class="tick" opacity="1" transform="translate(0,1920)"><line stroke="currentColor" x2="-6"/><text fill="currentColor" x="-9" dy="0.32em">40</text></g><g class="tick" opacity="1" transform="translate(0,1680)"><line stroke="currentColor" x2="-6"/><text fill="currentColor" x="-9" dy="0.32em">60</text></g><g class="tick" opacity="1" transform="translate(0,1440)"><line stroke="currentColor" x2="-6"/><text fill="currentColor" x="-9" dy="0.32em">80</text></g><g class="tick" opacity="1" transform="translate(0,1200)"><line stroke="currentColor" x2="-6"/><text fill="currentColor" x="-9" dy="0.32em">100</text></g><g class="tick" opacity="1" transform="translate(0,960)"><line stroke="currentColor" x2="-6"/><text fill="currentColor" x="-9" dy="0.32em">120</text></g><g class="tick" opacity="1" transform="translate(0,720)"><line stroke="currentColor" x2="-6"/><text fill="currentColor" x="-9" dy="0.32em">140</text></g><g class="tick" opacity="1" transform="translate(0,480)"><line stroke="currentColor" x2="-6"/><text fill="currentColor" x="-9" dy="0.32em">160</text></g><g class="tick" opacity="1" transform="translate(0,240)"><line stroke="currentColor" x2="-6"/><text fill="currentColor" x="-9" dy="0.32em">180</text></g><g class="tick" opacity="1" transform="translate(0,0)"><line stroke="currentColor" x2="-6"/><text fill="currentColor" x="-9" dy="0.32em">200</text></g><text x="4" text-anchor="start" dominant-baseline="hanging" style="font-family: Arial, sans-serif; font-size: 12px; fill: rgb(123, 123, 123); font-weight: bold;">n_items</text></g></g><g id="viz"><g><circle cx="948" cy="1812" fill="#05131d" r="13" stroke="white"/></g><g><circle cx="931" cy="1536" fill="#05131d" r="12" stroke="white"/></g><g><circle cx="1049" cy="2076" fill="#05131d" r="11" stroke="white"/></g><g><circle cx="1032" cy="1848" fill="#05131d" r="11" stroke="white"/></g><g><circle cx="1066" cy="1920" fill="#fe8a18" r="8" stroke="white"/></g><g><circle cx="965" cy="2148" fill="#05131d" r="7" stroke="white"/></g><g><circle cx="948" cy="828" fill="#6c6e68" r="7" stroke="white"/></g><g><circle cx="914" cy="1428" fill="#6c6e68" r="7" stroke="white"/></g><g><circle cx="880" cy="1872" fill="#6c6e68" r="7" stroke="white"/></g><g><circle cx="1015" cy="2100" fill="#c91a09" r="6" stroke="white"/></g><g><circle cx="982" cy="2112" fill="#583927" r="6" stroke="white"/></g><g><circle cx="863" cy="1992" fill="#c91a09" r="6" stroke="white"/></g><g><circle cx="812" cy="1884" fill="#05131d" r="6" stroke="white"/></g><g><circle cx="795" cy="1716" fill="#05131d" r="6" stroke="white"/></g><g><circle cx="745" cy="1800" fill="#6c6e68" r="6" stroke="white"/></g><g><circle cx="728" cy="1512" fill="#6c6e68" r="6" stroke="white"/></g><g><circle cx="711" cy="1932" fill="#6c6e68" r="6" stroke="white"/></g><g><circle cx="1066" cy="1320" fill="#ffffff" r="5" stroke="white"/></g><g><circle cx="1049" cy="1284" fill="#05131d" r="5" stroke="white"/></g><g><circle cx="1032" cy="588" fill="#05131d" r="5" stroke="white"/></g><g><circle cx="1015" cy="1080" fill="#c91a09" r="5" stroke="white"/></g><g><circle cx="998" cy="2076" fill="#ffffff" r="5" stroke="white"/></g><g><circle cx="982" cy="804" fill="#ffffff" r="5" stroke="white"/></g><g><circle cx="897" cy="2016" fill="#f2cd37" r="5" stroke="white"/></g><g><circle cx="880" cy="672" fill="#c91a09" r="5" stroke="white"/></g><g><circle cx="829" cy="1944" fill="#05131d" r="5" stroke="white"/></g><g><circle cx="762" cy="1836" fill="#0055bf" r="5" stroke="white"/></g><g><circle cx="1083" cy="2352" fill="#6c6e68" r="4" stroke="white"/></g><g><circle cx="1083" cy="2196" fill="#6c6e68" r="4" stroke="white"/></g><g><circle cx="965" cy="1128" fill="#c91a09" r="4" stroke="white"/></g><g><circle cx="931" cy="12" fill="#05131d" r="4" stroke="white"/></g><g><circle cx="914" cy="72" fill="#05131d" r="4" stroke="white"/></g><g><circle cx="897" cy="876" fill="#05131d" r="4" stroke="white"/></g><g><circle cx="863" cy="1008" fill="#6c6e68" r="4" stroke="white"/></g><g><circle cx="846" cy="2100" fill="#6c6e68" r="4" stroke="white"/></g><g><circle cx="846" cy="1560" fill="#ffffff" r="4" stroke="white"/></g><g><circle cx="829" cy="1476" fill="#05131d" r="4" stroke="white"/></g><g><circle cx="812" cy="1452" fill="#ffffff" r="4" stroke="white"/></g><g><circle cx="812" cy="1452" fill="#ffffff" r="4" stroke="white"/></g><g><circle cx="795" cy="1068" fill="#05131d" r="4" stroke="white"/></g><g><circle cx="778" cy="1836" fill="#ffffff" r="4" stroke="white"/></g><g><circle cx="778" cy="1476" fill="#05131d" r="4" stroke="white"/></g><g><circle cx="762" cy="1416" fill="#c91a09" r="4" stroke="white"/></g><g><circle cx="745" cy="1392" fill="#c91a09" r="4" stroke="white"/></g><g><circle cx="694" cy="1812" fill="#05131d" r="4" stroke="white"/></g><g><circle cx="677" cy="1968" fill="#6c6e68" r="4" stroke="white"/></g><g><circle cx="660" cy="1728" fill="#6c6e68" r="4" stroke="white"/></g><g><circle cx="575" cy="2292" fill="#6c6e68" r="4" stroke="white"/></g><g><circle cx="728" cy="984" fill="#6c6e68" r="3" stroke="white"/></g><g><circle cx="711" cy="1032" fill="#ffffff" r="3" stroke="white"/></g><g><circle cx="694" cy="1140" fill="#05131d" r="3" stroke="white"/></g><g><circle cx="694" cy="1140" fill="#05131d" r="3" stroke="white"/></g><g><circle cx="677" cy="1464" fill="#6c6e68" r="3" stroke="white"/></g><g><circle cx="660" cy="2268" fill="#0055bf" r="3" stroke="white"/></g><g><circle cx="643" cy="2184" fill="#05131d" r="3" stroke="white"/></g><g><circle cx="643" cy="1956" fill="#6c6e68" r="3" stroke="white"/></g><g><circle cx="474" cy="2376" fill="#05131d" r="3" stroke="white"/></g><g><circle cx="457" cy="2304" fill="#05131d" r="3" stroke="white"/></g><g><circle cx="355" cy="2388" fill="#ffffff" r="3" stroke="white"/></g><g><circle cx="186" cy="2388" fill="#c91a09" r="3" stroke="white"/></g><g><circle cx="998" cy="1380" fill="#6c6e68" r="2" stroke="white"/></g><g><circle cx="626" cy="2304" fill="#ffffff" r="2" stroke="white"/></g><g><circle cx="609" cy="2340" fill="#05131d" r="2" stroke="white"/></g><g><circle cx="609" cy="2268" fill="#05131d" r="2" stroke="white"/></g><g><circle cx="592" cy="2352" fill="#c91a09" r="2" stroke="white"/></g><g><circle cx="592" cy="2268" fill="#ffffff" r="2" stroke="white"/></g><g><circle cx="558" cy="2352" fill="#05131d" r="2" stroke="white"/></g><g><circle cx="558" cy="2172" fill="#05131d" r="2" stroke="white"/></g><g><circle cx="558" cy="2172" fill="#05131d" r="2" stroke="white"/></g><g><circle cx="542" cy="2316" fill="#05131d" r="2" stroke="white"/></g><g><circle cx="542" cy="2316" fill="#05131d" r="2" stroke="white"/></g><g><circle cx="525" cy="2376" fill="#05131d" r="2" stroke="white"/></g><g><circle cx="457" cy="2364" fill="#05131d" r="2" stroke="white"/></g><g><circle cx="355" cy="2304" fill="#ffffff" r="2" stroke="white"/></g><g><circle cx="338" cy="2388" fill="#05131d" r="2" stroke="white"/></g><g><circle cx="271" cy="2388" fill="#c91a09" r="2" stroke="white"/></g><g><circle cx="169" cy="2376" fill="#f2cd37" r="2" stroke="white"/></g><g><circle cx="152" cy="2376" fill="#c91a09" r="2" stroke="white"/></g><g><circle cx="118" cy="2388" fill="#ffffff" r="2" stroke="white"/></g><g><circle cx="102" cy="2268" fill="#c91a09" r="2" stroke="white"/></g><g><circle cx="102" cy="2268" fill="#c91a09" r="2" stroke="white"/></g><g><circle cx="575" cy="2220" fill="#c91a09" r="1" stroke="white"/></g><g><circle cx="525" cy="2196" fill="#c91a09" r="1" stroke="white"/></g><g><circle cx="508" cy="2376" fill="#05131d" r="1" stroke="white"/></g><g><circle cx="508" cy="2328" fill="#ffffff" r="1" stroke="white"/></g><g><circle cx="491" cy="2352" fill="#05131d" r="1" stroke="white"/></g><g><circle cx="491" cy="2268" fill="#ffffff" r="1" stroke="white"/></g><g><circle cx="474" cy="2352" fill="#0055bf" r="1" stroke="white"/></g><g><circle cx="440" cy="2352" fill="#05131d" r="1" stroke="white"/></g><g><circle cx="440" cy="2304" fill="#6c6e68" r="1" stroke="white"/></g><g><circle cx="423" cy="2328" fill="#05131d" r="1" stroke="white"/></g><g><circle cx="423" cy="2292" fill="#0055bf" r="1" stroke="white"/></g><g><circle cx="423" cy="2292" fill="#6c6e68" r="1" stroke="white"/></g><g><circle cx="406" cy="2352" fill="#ffffff" r="1" stroke="white"/></g><g><circle cx="406" cy="2352" fill="#c91a09" r="1" stroke="white"/></g><g><circle cx="406" cy="2316" fill="#6c6e68" r="1" stroke="white"/></g><g><circle cx="389" cy="2364" fill="#05131d" r="1" stroke="white"/></g><g><circle cx="389" cy="2352" fill="#c91a09" r="1" stroke="white"/></g><g><circle cx="372" cy="2388" fill="#ffffff" r="1" stroke="white"/></g><g><circle cx="322" cy="2376" fill="#6c6e68" r="1" stroke="white"/></g><g><circle cx="271" cy="2364" fill="#c91a09" r="1" stroke="white"/></g><g><circle cx="102" cy="2388" fill="#c91a09" r="1" stroke="white"/></g><g><circle cx="102" cy="2388" fill="#ffffff" r="1" stroke="white"/></g><g><circle cx="68" cy="2388" fill="#ffffff" r="0" stroke="white"/></g><g><circle cx="68" cy="2340" fill="#05131d" r="0" stroke="white"/></g><g><circle cx="68" cy="2340" fill="#05131d" r="0" stroke="white"/></g><g><circle cx="68" cy="2340" fill="#05131d" r="0" stroke="white"/></g><g><circle cx="68" cy="2340" fill="#05131d" r="0" stroke="white"/></g><g id="labels"><g transform="translate(948,1812)"><text x="0" y="0" text-anchor="middle" dominant-baseline="text-before-edge" transform="translate(0,-5.55224609375)"><tspan x="0" y="0" dy="0" style="font-family: Arial, sans-serif; font-size: 10px; fill: black; font-weight: bold;">StoryStarter Package - 30 Students</tspan></text></g><g transform="translate(931,1536)"><text x="0" y="0" text-anchor="middle" dominant-baseline="text-before-edge" transform="translate(0,-5.55224609375)"><tspan x="0" y="0" dy="0" style="font-family: Arial, sans-serif; font-size: 10px; fill: black; font-weight: bold;">The Ultimate Battle for Chima</tspan></text></g><g transform="translate(1049,2076)"><text x="0" y="0" text-anchor="middle" dominant-baseline="text-before-edge" transform="translate(0,-5.55224609375)"><tspan x="0" y="0" dy="0" style="font-family: Arial, sans-serif; font-size: 10px; fill: black; font-weight: bold;">SPIKE Prime Class Pack</tspan></text></g><g transform="translate(1032,1848)"><text x="0" y="0" text-anchor="middle" dominant-baseline="text-before-edge" transform="translate(0,-5.55224609375)"><tspan x="0" y="0" dy="0" style="font-family: Arial, sans-serif; font-size: 10px; fill: black; font-weight: bold;">BricQ Motion Prime Hybrid Learning Classroom Starter Pack</tspan></text></g><g transform="translate(1066,1920)"><text x="0" y="0" text-anchor="middle" dominant-baseline="text-before-edge" transform="translate(0,-5.55224609375)"><tspan x="0" y="0" dy="0" style="font-family: Arial, sans-serif; font-size: 10px; fill: black; font-weight: bold;">MASTERPIECE Class Pack (FLL Explore)</tspan></text></g><g transform="translate(965,2148)"><text x="0" y="0" text-anchor="middle" dominant-baseline="text-before-edge" transform="translate(0,-5.55224609375)"><tspan x="0" y="0" dy="0" style="font-family: Arial, sans-serif; font-size: 10px; fill: black; font-weight: bold;">EV3 Comprehensive Solution (8 Student Pack)</tspan></text></g><g transform="translate(948,828)"><text x="0" y="0" text-anchor="middle" dominant-baseline="text-before-edge" transform="translate(0,-5.55224609375)"><tspan x="0" y="0" dy="0" style="font-family: Arial, sans-serif; font-size: 10px; fill: black; font-weight: bold;">Death Star</tspan></text></g><g transform="translate(914,1428)"><text x="0" y="0" text-anchor="middle" dominant-baseline="text-before-edge" transform="translate(0,-5.55224609375)"><tspan x="0" y="0" dy="0" style="font-family: Arial, sans-serif; font-size: 10px; fill: black; font-weight: bold;">Classic Collection</tspan></text></g><g transform="translate(880,1872)"><text x="0" y="0" text-anchor="middle" dominant-baseline="text-before-edge" transform="translate(0,-5.55224609375)"><tspan x="0" y="0" dy="0" style="font-family: Arial, sans-serif; font-size: 10px; fill: black; font-weight: bold;">The Lord of the Rings Collection</tspan></text></g><g transform="translate(1015,2100)"><text x="0" y="0" text-anchor="middle" dominant-baseline="text-before-edge" transform="translate(0,-5.55224609375)"><tspan x="0" y="0" dy="0" style="font-family: Arial, sans-serif; font-size: 10px; fill: black; font-weight: bold;">Lunar New Year Bundle</tspan></text></g><g transform="translate(982,2112)"><text x="0" y="0" text-anchor="middle" dominant-baseline="text-before-edge" transform="translate(0,-5.55224609375)"><tspan x="0" y="0" dy="0" style="font-family: Arial, sans-serif; font-size: 10px; fill: black; font-weight: bold;">Life of Luke Skywalker Collection</tspan></text></g><g transform="translate(863,1992)"><text x="0" y="0" text-anchor="middle" dominant-baseline="text-before-edge" transform="translate(0,-5.55224609375)"><tspan x="0" y="0" dy="0" style="font-family: Arial, sans-serif; font-size: 10px; fill: black; font-weight: bold;">Playtable Creative Center Bundle</tspan></text></g><g transform="translate(812,1884)"><text x="0" y="0" text-anchor="middle" dominant-baseline="text-before-edge" transform="translate(0,-5.55224609375)"><tspan x="0" y="0" dy="0" style="font-family: Arial, sans-serif; font-size: 10px; fill: black; font-weight: bold;">Mars Mission Collection</tspan></text></g><g transform="translate(795,1716)"><text x="0" y="0" text-anchor="middle" dominant-baseline="text-before-edge" transform="translate(0,-5.55224609375)"><tspan x="0" y="0" dy="0" style="font-family: Arial, sans-serif; font-size: 10px; fill: black; font-weight: bold;">Complete Mars Mission Collection</tspan></text></g><g transform="translate(745,1800)"><text x="0" y="0" text-anchor="middle" dominant-baseline="text-before-edge" transform="translate(0,-5.55224609375)"><tspan x="0" y="0" dy="0" style="font-family: Arial, sans-serif; font-size: 10px; fill: black; font-weight: bold;">Battle of Yavin Collection</tspan></text></g><g transform="translate(728,1512)"><text x="0" y="0" text-anchor="middle" dominant-baseline="text-before-edge" transform="translate(0,-5.55224609375)"><tspan x="0" y="0" dy="0" style="font-family: Arial, sans-serif; font-size: 10px; fill: black; font-weight: bold;">Discovery Space Kit</tspan></text></g><g transform="translate(711,1932)"><text x="0" y="0" text-anchor="middle" dominant-baseline="text-before-edge" transform="translate(0,-5.55224609375)"><tspan x="0" y="0" dy="0" style="font-family: Arial, sans-serif; font-size: 10px; fill: black; font-weight: bold;">Santa Fe Train Kit</tspan></text></g><g transform="translate(1066,1320)"><text x="0" y="0" text-anchor="middle" dominant-baseline="text-before-edge" transform="translate(0,-5.55224609375)"><tspan x="0" y="0" dy="0" style="font-family: Arial, sans-serif; font-size: 10px; fill: black; font-weight: bold;">MASTERPIECE Challenge Set</tspan></text></g><g transform="translate(1049,1284)"><text x="0" y="0" text-anchor="middle" dominant-baseline="text-before-edge" transform="translate(0,-5.55224609375)"><tspan x="0" y="0" dy="0" style="font-family: Arial, sans-serif; font-size: 10px; fill: black; font-weight: bold;">SUPERPOWERED Challenge Kit</tspan></text></g><g transform="translate(1032,588)"><text x="0" y="0" text-anchor="middle" dominant-baseline="text-before-edge" transform="translate(0,-5.55224609375)"><tspan x="0" y="0" dy="0" style="font-family: Arial, sans-serif; font-size: 10px; fill: black; font-weight: bold;">CARGO CONNECT Challenge Kit</tspan></text></g><g transform="translate(1015,1080)"><text x="0" y="0" text-anchor="middle" dominant-baseline="text-before-edge" transform="translate(0,-5.55224609375)"><tspan x="0" y="0" dy="0" style="font-family: Arial, sans-serif; font-size: 10px; fill: black; font-weight: bold;">Chinese New Year Temple Fair</tspan></text></g><g transform="translate(998,2076)"><text x="0" y="0" text-anchor="middle" dominant-baseline="text-before-edge" transform="translate(0,-5.55224609375)"><tspan x="0" y="0" dy="0" style="font-family: Arial, sans-serif; font-size: 10px; fill: black; font-weight: bold;">Classic Bricks Bundle</tspan></text></g><g transform="translate(982,804)"><text x="0" y="0" text-anchor="middle" dominant-baseline="text-before-edge" transform="translate(0,-5.55224609375)"><tspan x="0" y="0" dy="0" style="font-family: Arial, sans-serif; font-size: 10px; fill: black; font-weight: bold;">Bricks Bricks Bricks</tspan></text></g><g transform="translate(897,2016)"><text x="0" y="0" text-anchor="middle" dominant-baseline="text-before-edge" transform="translate(0,-5.55224609375)"><tspan x="0" y="0" dy="0" style="font-family: Arial, sans-serif; font-size: 10px; fill: black; font-weight: bold;">Jr.FLL Base Kit</tspan></text></g><g transform="translate(880,672)"><text x="0" y="0" text-anchor="middle" dominant-baseline="text-before-edge" transform="translate(0,-5.55224609375)"><tspan x="0" y="0" dy="0" style="font-family: Arial, sans-serif; font-size: 10px; fill: black; font-weight: bold;">Community Starter Set</tspan></text></g><g transform="translate(829,1944)"><text x="0" y="0" text-anchor="middle" dominant-baseline="text-before-edge" transform="translate(0,-5.55224609375)"><tspan x="0" y="0" dy="0" style="font-family: Arial, sans-serif; font-size: 10px; fill: black; font-weight: bold;">CITY Transport Collection</tspan></text></g><g transform="translate(762,1836)"><text x="0" y="0" text-anchor="middle" dominant-baseline="text-before-edge" transform="translate(0,-5.55224609375)"><tspan x="0" y="0" dy="0" style="font-family: Arial, sans-serif; font-size: 10px; fill: black; font-weight: bold;">Bricks and Creations Tub - (TRU Exclusive)</tspan></text></g><g transform="translate(1083,2352)"><text x="0" y="0" text-anchor="middle" dominant-baseline="text-before-edge" transform="translate(0,-5.55224609375)"><tspan x="0" y="0" dy="0" style="font-family: Arial, sans-serif; font-size: 10px; fill: black; font-weight: bold;">Dragon Stone Shrine Influencer Box</tspan></text></g><g transform="translate(1083,2196)"><text x="0" y="0" text-anchor="middle" dominant-baseline="text-before-edge" transform="translate(0,-5.55224609375)"><tspan x="0" y="0" dy="0" style="font-family: Arial, sans-serif; font-size: 10px; fill: black; font-weight: bold;">Dragon Stone Shrine</tspan></text></g><g transform="translate(965,1128)"><text x="0" y="0" text-anchor="middle" dominant-baseline="text-before-edge" transform="translate(0,-5.55224609375)"><tspan x="0" y="0" dy="0" style="font-family: Arial, sans-serif; font-size: 10px; fill: black; font-weight: bold;">Fire Mech</tspan></text></g><g transform="translate(931,12)"><text x="0" y="0" text-anchor="middle" dominant-baseline="text-before-edge" transform="translate(0,-5.55224609375)"><tspan x="0" y="0" dy="0" style="font-family: Arial, sans-serif; font-size: 10px; fill: black; font-weight: bold;">Final Flight of Destiny's Bounty</tspan></text></g><g transform="translate(914,72)"><text x="0" y="0" text-anchor="middle" dominant-baseline="text-before-edge" transform="translate(0,-5.55224609375)"><tspan x="0" y="0" dy="0" style="font-family: Arial, sans-serif; font-size: 10px; fill: black; font-weight: bold;">Space Challenge Set</tspan></text></g><g transform="translate(897,876)"><text x="0" y="0" text-anchor="middle" dominant-baseline="text-before-edge" transform="translate(0,-5.55224609375)"><tspan x="0" y="0" dy="0" style="font-family: Arial, sans-serif; font-size: 10px; fill: black; font-weight: bold;">Horizon Express</tspan></text></g><g transform="translate(863,1008)"><text x="0" y="0" text-anchor="middle" dominant-baseline="text-before-edge" transform="translate(0,-5.55224609375)"><tspan x="0" y="0" dy="0" style="font-family: Arial, sans-serif; font-size: 10px; fill: black; font-weight: bold;">Green City Challenge Set</tspan></text></g><g transform="translate(846,2100)"><text x="0" y="0" text-anchor="middle" dominant-baseline="text-before-edge" transform="translate(0,-5.55224609375)"><tspan x="0" y="0" dy="0" style="font-family: Arial, sans-serif; font-size: 10px; fill: black; font-weight: bold;">City Super Pack 4 in 1</tspan></text></g><g transform="translate(846,1560)"><text x="0" y="0" text-anchor="middle" dominant-baseline="text-before-edge" transform="translate(0,-5.55224609375)"><tspan x="0" y="0" dy="0" style="font-family: Arial, sans-serif; font-size: 10px; fill: black; font-weight: bold;">Sceneries Set</tspan></text></g><g transform="translate(829,1476)"><text x="0" y="0" text-anchor="middle" dominant-baseline="text-before-edge" transform="translate(0,-5.55224609375)"><tspan x="0" y="0" dy="0" style="font-family: Arial, sans-serif; font-size: 10px; fill: black; font-weight: bold;">Emerald Night</tspan></text></g><g transform="translate(812,1452)"><text x="0" y="0" text-anchor="middle" dominant-baseline="text-before-edge" transform="translate(0,-5.55224609375)"><tspan x="0" y="0" dy="0" style="font-family: Arial, sans-serif; font-size: 10px; fill: black; font-weight: bold;">Police Headquarters</tspan></text></g><g transform="translate(812,1452)"><text x="0" y="0" text-anchor="middle" dominant-baseline="text-before-edge" transform="translate(0,-5.55224609375)"><tspan x="0" y="0" dy="0" style="font-family: Arial, sans-serif; font-size: 10px; fill: black; font-weight: bold;">Police Headquarters</tspan></text></g><g transform="translate(795,1068)"><text x="0" y="0" text-anchor="middle" dominant-baseline="text-before-edge" transform="translate(0,-5.55224609375)"><tspan x="0" y="0" dy="0" style="font-family: Arial, sans-serif; font-size: 10px; fill: black; font-weight: bold;">Mobile Devastator</tspan></text></g><g transform="translate(778,1836)"><text x="0" y="0" text-anchor="middle" dominant-baseline="text-before-edge" transform="translate(0,-5.55224609375)"><tspan x="0" y="0" dy="0" style="font-family: Arial, sans-serif; font-size: 10px; fill: black; font-weight: bold;">Value Pack</tspan></text></g><g transform="translate(778,1476)"><text x="0" y="0" text-anchor="middle" dominant-baseline="text-before-edge" transform="translate(0,-5.55224609375)"><tspan x="0" y="0" dy="0" style="font-family: Arial, sans-serif; font-size: 10px; fill: black; font-weight: bold;">Holiday Train</tspan></text></g><g transform="translate(762,1416)"><text x="0" y="0" text-anchor="middle" dominant-baseline="text-before-edge" transform="translate(0,-5.55224609375)"><tspan x="0" y="0" dy="0" style="font-family: Arial, sans-serif; font-size: 10px; fill: black; font-weight: bold;">Bricks and Creations Tub - (TRU Exclusive) (Bottom Tub and its contents only)</tspan></text></g><g transform="translate(745,1392)"><text x="0" y="0" text-anchor="middle" dominant-baseline="text-before-edge" transform="translate(0,-5.55224609375)"><tspan x="0" y="0" dy="0" style="font-family: Arial, sans-serif; font-size: 10px; fill: black; font-weight: bold;">Bricks and Creations Tub (Bottom Tub and its contents only)</tspan></text></g><g transform="translate(694,1812)"><text x="0" y="0" text-anchor="middle" dominant-baseline="text-before-edge" transform="translate(0,-5.55224609375)"><tspan x="0" y="0" dy="0" style="font-family: Arial, sans-serif; font-size: 10px; fill: black; font-weight: bold;">Classic Pirates Kit</tspan></text></g><g transform="translate(677,1968)"><text x="0" y="0" text-anchor="middle" dominant-baseline="text-before-edge" transform="translate(0,-5.55224609375)"><tspan x="0" y="0" dy="0" style="font-family: Arial, sans-serif; font-size: 10px; fill: black; font-weight: bold;">Star Wars Co-Pack</tspan></text></g><g transform="translate(660,1728)"><text x="0" y="0" text-anchor="middle" dominant-baseline="text-before-edge" transform="translate(0,-5.55224609375)"><tspan x="0" y="0" dy="0" style="font-family: Arial, sans-serif; font-size: 10px; fill: black; font-weight: bold;">Mos Espa Podrace</tspan></text></g><g transform="translate(575,2292)"><text x="0" y="0" text-anchor="middle" dominant-baseline="text-before-edge" transform="translate(0,-5.55224609375)"><tspan x="0" y="0" dy="0" style="font-family: Arial, sans-serif; font-size: 10px; fill: black; font-weight: bold;">Wheel and Axle Classroom Pack</tspan></text></g><g transform="translate(728,984)"><text x="0" y="0" text-anchor="middle" dominant-baseline="text-before-edge" transform="translate(0,-5.55224609375)"><tspan x="0" y="0" dy="0" style="font-family: Arial, sans-serif; font-size: 10px; fill: black; font-weight: bold;">Mars Exploration Rover</tspan></text></g><g transform="translate(711,1032)"><text x="0" y="0" text-anchor="middle" dominant-baseline="text-before-edge" transform="translate(0,-5.55224609375)"><tspan x="0" y="0" dy="0" style="font-family: Arial, sans-serif; font-size: 10px; fill: black; font-weight: bold;">Republic Gunship</tspan></text></g><g transform="translate(694,1140)"><text x="0" y="0" text-anchor="middle" dominant-baseline="text-before-edge" transform="translate(0,-5.55224609375)"><tspan x="0" y="0" dy="0" style="font-family: Arial, sans-serif; font-size: 10px; fill: black; font-weight: bold;">Metroliner</tspan></text></g><g transform="translate(694,1140)"><text x="0" y="0" text-anchor="middle" dominant-baseline="text-before-edge" transform="translate(0,-5.55224609375)"><tspan x="0" y="0" dy="0" style="font-family: Arial, sans-serif; font-size: 10px; fill: black; font-weight: bold;">Metroliner</tspan></text></g><g transform="translate(677,1464)"><text x="0" y="0" text-anchor="middle" dominant-baseline="text-before-edge" transform="translate(0,-5.55224609375)"><tspan x="0" y="0" dy="0" style="font-family: Arial, sans-serif; font-size: 10px; fill: black; font-weight: bold;">Millennium Falcon</tspan></text></g><g transform="translate(660,2268)"><text x="0" y="0" text-anchor="middle" dominant-baseline="text-before-edge" transform="translate(0,-5.55224609375)"><tspan x="0" y="0" dy="0" style="font-family: Arial, sans-serif; font-size: 10px; fill: black; font-weight: bold;">Super Value Pack</tspan></text></g><g transform="translate(643,2184)"><text x="0" y="0" text-anchor="middle" dominant-baseline="text-before-edge" transform="translate(0,-5.55224609375)"><tspan x="0" y="0" dy="0" style="font-family: Arial, sans-serif; font-size: 10px; fill: black; font-weight: bold;">Adventurers Set</tspan></text></g><g transform="translate(643,1956)"><text x="0" y="0" text-anchor="middle" dominant-baseline="text-before-edge" transform="translate(0,-5.55224609375)"><tspan x="0" y="0" dy="0" style="font-family: Arial, sans-serif; font-size: 10px; fill: black; font-weight: bold;">Pharaoh's Forbidden Ruins</tspan></text></g><g transform="translate(474,2376)"><text x="0" y="0" text-anchor="middle" dominant-baseline="text-before-edge" transform="translate(0,-5.55224609375)"><tspan x="0" y="0" dy="0" style="font-family: Arial, sans-serif; font-size: 10px; fill: black; font-weight: bold;">Lego TC logo Starter Pack</tspan></text></g><g transform="translate(457,2304)"><text x="0" y="0" text-anchor="middle" dominant-baseline="text-before-edge" transform="translate(0,-5.55224609375)"><tspan x="0" y="0" dy="0" style="font-family: Arial, sans-serif; font-size: 10px; fill: black; font-weight: bold;">Technic Control Center</tspan></text></g><g transform="translate(355,2388)"><text x="0" y="0" text-anchor="middle" dominant-baseline="text-before-edge" transform="translate(0,-5.55224609375)"><tspan x="0" y="0" dy="0" style="font-family: Arial, sans-serif; font-size: 10px; fill: black; font-weight: bold;">Road Safety Kit</tspan></text></g><g transform="translate(186,2388)"><text x="0" y="0" text-anchor="middle" dominant-baseline="text-before-edge" transform="translate(0,-5.55224609375)"><tspan x="0" y="0" dy="0" style="font-family: Arial, sans-serif; font-size: 10px; fill: black; font-weight: bold;">Village Set</tspan></text></g><g transform="translate(998,1380)"><text x="0" y="0" text-anchor="middle" dominant-baseline="text-before-edge" transform="translate(0,-5.55224609375)"><tspan x="0" y="0" dy="0" style="font-family: Arial, sans-serif; font-size: 10px; fill: black; font-weight: bold;">D.Va &amp; Reinhardt</tspan></text></g><g transform="translate(626,2304)"><text x="0" y="0" text-anchor="middle" dominant-baseline="text-before-edge" transform="translate(0,-5.55224609375)"><tspan x="0" y="0" dy="0" style="font-family: Arial, sans-serif; font-size: 10px; fill: black; font-weight: bold;">Fire Value Pack</tspan></text></g><g transform="translate(609,2340)"><text x="0" y="0" text-anchor="middle" dominant-baseline="text-before-edge" transform="translate(0,-5.55224609375)"><tspan x="0" y="0" dy="0" style="font-family: Arial, sans-serif; font-size: 10px; fill: black; font-weight: bold;">Wild West Limited Edition Gift Pack</tspan></text></g><g transform="translate(609,2268)"><text x="0" y="0" text-anchor="middle" dominant-baseline="text-before-edge" transform="translate(0,-5.55224609375)"><tspan x="0" y="0" dy="0" style="font-family: Arial, sans-serif; font-size: 10px; fill: black; font-weight: bold;">Sheriff's Lock-Up</tspan></text></g><g transform="translate(592,2352)"><text x="0" y="0" text-anchor="middle" dominant-baseline="text-before-edge" transform="translate(0,-5.55224609375)"><tspan x="0" y="0" dy="0" style="font-family: Arial, sans-serif; font-size: 10px; fill: black; font-weight: bold;">Super Value Pack</tspan></text></g><g transform="translate(592,2268)"><text x="0" y="0" text-anchor="middle" dominant-baseline="text-before-edge" transform="translate(0,-5.55224609375)"><tspan x="0" y="0" dy="0" style="font-family: Arial, sans-serif; font-size: 10px; fill: black; font-weight: bold;">Launch Response Unit</tspan></text></g><g transform="translate(558,2352)"><text x="0" y="0" text-anchor="middle" dominant-baseline="text-before-edge" transform="translate(0,-5.55224609375)"><tspan x="0" y="0" dy="0" style="font-family: Arial, sans-serif; font-size: 10px; fill: black; font-weight: bold;">Blacktron Super Vehicle (Value 3-Pack)</tspan></text></g><g transform="translate(558,2172)"><text x="0" y="0" text-anchor="middle" dominant-baseline="text-before-edge" transform="translate(0,-5.55224609375)"><tspan x="0" y="0" dy="0" style="font-family: Arial, sans-serif; font-size: 10px; fill: black; font-weight: bold;">Super Model Building Instruction</tspan></text></g><g transform="translate(558,2172)"><text x="0" y="0" text-anchor="middle" dominant-baseline="text-before-edge" transform="translate(0,-5.55224609375)"><tspan x="0" y="0" dy="0" style="font-family: Arial, sans-serif; font-size: 10px; fill: black; font-weight: bold;">Super Model Building Instruction</tspan></text></g><g transform="translate(542,2316)"><text x="0" y="0" text-anchor="middle" dominant-baseline="text-before-edge" transform="translate(0,-5.55224609375)"><tspan x="0" y="0" dy="0" style="font-family: Arial, sans-serif; font-size: 10px; fill: black; font-weight: bold;">Imperial Flagship with Free Storage Case</tspan></text></g><g transform="translate(542,2316)"><text x="0" y="0" text-anchor="middle" dominant-baseline="text-before-edge" transform="translate(0,-5.55224609375)"><tspan x="0" y="0" dy="0" style="font-family: Arial, sans-serif; font-size: 10px; fill: black; font-weight: bold;">Imperial Flagship</tspan></text></g><g transform="translate(525,2376)"><text x="0" y="0" text-anchor="middle" dominant-baseline="text-before-edge" transform="translate(0,-5.55224609375)"><tspan x="0" y="0" dy="0" style="font-family: Arial, sans-serif; font-size: 10px; fill: black; font-weight: bold;">High Speed Adventure Team Collection</tspan></text></g><g transform="translate(457,2364)"><text x="0" y="0" text-anchor="middle" dominant-baseline="text-before-edge" transform="translate(0,-5.55224609375)"><tspan x="0" y="0" dy="0" style="font-family: Arial, sans-serif; font-size: 10px; fill: black; font-weight: bold;">Town Value Pack</tspan></text></g><g transform="translate(355,2304)"><text x="0" y="0" text-anchor="middle" dominant-baseline="text-before-edge" transform="translate(0,-5.55224609375)"><tspan x="0" y="0" dy="0" style="font-family: Arial, sans-serif; font-size: 10px; fill: black; font-weight: bold;">Dacta Buildings</tspan></text></g><g transform="translate(338,2388)"><text x="0" y="0" text-anchor="middle" dominant-baseline="text-before-edge" transform="translate(0,-5.55224609375)"><tspan x="0" y="0" dy="0" style="font-family: Arial, sans-serif; font-size: 10px; fill: black; font-weight: bold;">Town Vehicles</tspan></text></g><g transform="translate(271,2388)"><text x="0" y="0" text-anchor="middle" dominant-baseline="text-before-edge" transform="translate(0,-5.55224609375)"><tspan x="0" y="0" dy="0" style="font-family: Arial, sans-serif; font-size: 10px; fill: black; font-weight: bold;">Weetabix Village</tspan></text></g><g transform="translate(169,2376)"><text x="0" y="0" text-anchor="middle" dominant-baseline="text-before-edge" transform="translate(0,-5.55224609375)"><tspan x="0" y="0" dy="0" style="font-family: Arial, sans-serif; font-size: 10px; fill: black; font-weight: bold;">Fire Station with Mini Cars</tspan></text></g><g transform="translate(152,2376)"><text x="0" y="0" text-anchor="middle" dominant-baseline="text-before-edge" transform="translate(0,-5.55224609375)"><tspan x="0" y="0" dy="0" style="font-family: Arial, sans-serif; font-size: 10px; fill: black; font-weight: bold;">House with Car</tspan></text></g><g transform="translate(118,2388)"><text x="0" y="0" text-anchor="middle" dominant-baseline="text-before-edge" transform="translate(0,-5.55224609375)"><tspan x="0" y="0" dy="0" style="font-family: Arial, sans-serif; font-size: 10px; fill: black; font-weight: bold;">Discovery Set</tspan></text></g><g transform="translate(102,2268)"><text x="0" y="0" text-anchor="middle" dominant-baseline="text-before-edge" transform="translate(0,-5.55224609375)"><tspan x="0" y="0" dy="0" style="font-family: Arial, sans-serif; font-size: 10px; fill: black; font-weight: bold;">Medium Basic Set</tspan></text></g><g transform="translate(102,2268)"><text x="0" y="0" text-anchor="middle" dominant-baseline="text-before-edge" transform="translate(0,-5.55224609375)"><tspan x="0" y="0" dy="0" style="font-family: Arial, sans-serif; font-size: 10px; fill: black; font-weight: bold;">Medium Basic Set</tspan></text></g><g transform="translate(575,2220)"><text x="0" y="0" text-anchor="middle" dominant-baseline="text-before-edge" transform="translate(0,-5.55224609375)"><tspan x="0" y="0" dy="0" style="font-family: Arial, sans-serif; font-size: 10px; fill: black; font-weight: bold;">Van</tspan></text></g><g transform="translate(525,2196)"><text x="0" y="0" text-anchor="middle" dominant-baseline="text-before-edge" transform="translate(0,-5.55224609375)"><tspan x="0" y="0" dy="0" style="font-family: Arial, sans-serif; font-size: 10px; fill: black; font-weight: bold;">Basic Set - Animals</tspan></text></g><g transform="translate(508,2376)"><text x="0" y="0" text-anchor="middle" dominant-baseline="text-before-edge" transform="translate(0,-5.55224609375)"><tspan x="0" y="0" dy="0" style="font-family: Arial, sans-serif; font-size: 10px; fill: black; font-weight: bold;">LEGOLAND Triple Pack</tspan></text></g><g transform="translate(508,2328)"><text x="0" y="0" text-anchor="middle" dominant-baseline="text-before-edge" transform="translate(0,-5.55224609375)"><tspan x="0" y="0" dy="0" style="font-family: Arial, sans-serif; font-size: 10px; fill: black; font-weight: bold;">Lunar MPV Vehicle</tspan></text></g><g transform="translate(491,2352)"><text x="0" y="0" text-anchor="middle" dominant-baseline="text-before-edge" transform="translate(0,-5.55224609375)"><tspan x="0" y="0" dy="0" style="font-family: Arial, sans-serif; font-size: 10px; fill: black; font-weight: bold;">Legoland Triple Pack</tspan></text></g><g transform="translate(491,2268)"><text x="0" y="0" text-anchor="middle" dominant-baseline="text-before-edge" transform="translate(0,-5.55224609375)"><tspan x="0" y="0" dy="0" style="font-family: Arial, sans-serif; font-size: 10px; fill: black; font-weight: bold;">Race Car Repair</tspan></text></g><g transform="translate(474,2352)"><text x="0" y="0" text-anchor="middle" dominant-baseline="text-before-edge" transform="translate(0,-5.55224609375)"><tspan x="0" y="0" dy="0" style="font-family: Arial, sans-serif; font-size: 10px; fill: black; font-weight: bold;">Extra Duplo Bricks</tspan></text></g><g transform="translate(440,2352)"><text x="0" y="0" text-anchor="middle" dominant-baseline="text-before-edge" transform="translate(0,-5.55224609375)"><tspan x="0" y="0" dy="0" style="font-family: Arial, sans-serif; font-size: 10px; fill: black; font-weight: bold;">Town Value Pack</tspan></text></g><g transform="translate(440,2304)"><text x="0" y="0" text-anchor="middle" dominant-baseline="text-before-edge" transform="translate(0,-5.55224609375)"><tspan x="0" y="0" dy="0" style="font-family: Arial, sans-serif; font-size: 10px; fill: black; font-weight: bold;">Armor Shop</tspan></text></g><g transform="translate(423,2328)"><text x="0" y="0" text-anchor="middle" dominant-baseline="text-before-edge" transform="translate(0,-5.55224609375)"><tspan x="0" y="0" dy="0" style="font-family: Arial, sans-serif; font-size: 10px; fill: black; font-weight: bold;">Town Value Pack</tspan></text></g><g transform="translate(423,2292)"><text x="0" y="0" text-anchor="middle" dominant-baseline="text-before-edge" transform="translate(0,-5.55224609375)"><tspan x="0" y="0" dy="0" style="font-family: Arial, sans-serif; font-size: 10px; fill: black; font-weight: bold;">Tow Truck</tspan></text></g><g transform="translate(423,2292)"><text x="0" y="0" text-anchor="middle" dominant-baseline="text-before-edge" transform="translate(0,-5.55224609375)"><tspan x="0" y="0" dy="0" style="font-family: Arial, sans-serif; font-size: 10px; fill: black; font-weight: bold;">Interplanetary Shuttle</tspan></text></g><g transform="translate(406,2352)"><text x="0" y="0" text-anchor="middle" dominant-baseline="text-before-edge" transform="translate(0,-5.55224609375)"><tspan x="0" y="0" dy="0" style="font-family: Arial, sans-serif; font-size: 10px; fill: black; font-weight: bold;">Town 3-Pack</tspan></text></g><g transform="translate(406,2352)"><text x="0" y="0" text-anchor="middle" dominant-baseline="text-before-edge" transform="translate(0,-5.55224609375)"><tspan x="0" y="0" dy="0" style="font-family: Arial, sans-serif; font-size: 10px; fill: black; font-weight: bold;">Town Value Pack</tspan></text></g><g transform="translate(406,2316)"><text x="0" y="0" text-anchor="middle" dominant-baseline="text-before-edge" transform="translate(0,-5.55224609375)"><tspan x="0" y="0" dy="0" style="font-family: Arial, sans-serif; font-size: 10px; fill: black; font-weight: bold;">Space Dart I</tspan></text></g><g transform="translate(389,2364)"><text x="0" y="0" text-anchor="middle" dominant-baseline="text-before-edge" transform="translate(0,-5.55224609375)"><tspan x="0" y="0" dy="0" style="font-family: Arial, sans-serif; font-size: 10px; fill: black; font-weight: bold;">Town Value Pack</tspan></text></g><g transform="translate(389,2352)"><text x="0" y="0" text-anchor="middle" dominant-baseline="text-before-edge" transform="translate(0,-5.55224609375)"><tspan x="0" y="0" dy="0" style="font-family: Arial, sans-serif; font-size: 10px; fill: black; font-weight: bold;">Delivery Van</tspan></text></g><g transform="translate(372,2388)"><text x="0" y="0" text-anchor="middle" dominant-baseline="text-before-edge" transform="translate(0,-5.55224609375)"><tspan x="0" y="0" dy="0" style="font-family: Arial, sans-serif; font-size: 10px; fill: black; font-weight: bold;">Highway Emergency Van</tspan></text></g><g transform="translate(322,2376)"><text x="0" y="0" text-anchor="middle" dominant-baseline="text-before-edge" transform="translate(0,-5.55224609375)"><tspan x="0" y="0" dy="0" style="font-family: Arial, sans-serif; font-size: 10px; fill: black; font-weight: bold;">Radar Truck</tspan></text></g><g transform="translate(271,2364)"><text x="0" y="0" text-anchor="middle" dominant-baseline="text-before-edge" transform="translate(0,-5.55224609375)"><tspan x="0" y="0" dy="0" style="font-family: Arial, sans-serif; font-size: 10px; fill: black; font-weight: bold;">House</tspan></text></g><g transform="translate(102,2388)"><text x="0" y="0" text-anchor="middle" dominant-baseline="text-before-edge" transform="translate(0,-5.55224609375)"><tspan x="0" y="0" dy="0" style="font-family: Arial, sans-serif; font-size: 10px; fill: black; font-weight: bold;">Windows and Doors, Retailer Pack</tspan></text></g><g transform="translate(102,2388)"><text x="0" y="0" text-anchor="middle" dominant-baseline="text-before-edge" transform="translate(0,-5.55224609375)"><tspan x="0" y="0" dy="0" style="font-family: Arial, sans-serif; font-size: 10px; fill: black; font-weight: bold;">Windows and Doors, Retailer Pack</tspan></text></g><g transform="translate(68,2388)"><text x="0" y="0" text-anchor="middle" dominant-baseline="text-before-edge" transform="translate(0,-5.55224609375)"><tspan x="0" y="0" dy="0" style="font-family: Arial, sans-serif; font-size: 10px; fill: black; font-weight: bold;">1:87 Nine Models</tspan></text></g><g transform="translate(68,2340)"><text x="0" y="0" text-anchor="middle" dominant-baseline="text-before-edge" transform="translate(0,-5.55224609375)"><tspan x="0" y="0" dy="0" style="font-family: Arial, sans-serif; font-size: 10px; fill: black; font-weight: bold;">1:87 VW 1500</tspan></text></g><g transform="translate(68,2340)"><text x="0" y="0" text-anchor="middle" dominant-baseline="text-before-edge" transform="translate(0,-5.55224609375)"><tspan x="0" y="0" dy="0" style="font-family: Arial, sans-serif; font-size: 10px; fill: black; font-weight: bold;">1:87 Karmann Ghia</tspan></text></g><g transform="translate(68,2340)"><text x="0" y="0" text-anchor="middle" dominant-baseline="text-before-edge" transform="translate(0,-5.55224609375)"><tspan x="0" y="0" dy="0" style="font-family: Arial, sans-serif; font-size: 10px; fill: black; font-weight: bold;">1:87 Mercedes 220 S</tspan></text></g><g transform="translate(68,2340)"><text x="0" y="0" text-anchor="middle" dominant-baseline="text-before-edge" transform="translate(0,-5.55224609375)"><tspan x="0" y="0" dy="0" style="font-family: Arial, sans-serif; font-size: 10px; fill: black; font-weight: bold;">1:87 Ford Taunus 17M</tspan></text></g></g></g></g><text y="4" x="4" style="font-family: Arial, sans-serif; font-size: 12px; fill: black; font-weight: bold; dominant-baseline: hanging;"/></g></g><g id="grid"><rect x="0" y="0" width="1200" height="2500" fill="none" stroke="#ccc"/></g><clipPath id="serieClipPath"><rect x="-50" y="-50" width="1200" height="2500"/></clipPath><g id="legend" transform="translate(1200,50)"><g transform="translate(5,0)"><g class="legendSize" transform="translate(0,0)"><g class="legendCells" transform="translate(13,15.5)"><g class="cell" transform="translate(0, 0)"><circle class="swatch" r="0" fill="none" stroke="#ccc"/><text class="label" transform="translate( 18,&#10;          5)" font-family="&quot;Arial&quot;, sans-serif" font-size="10px"><tspan x="0" dy="0em">1.0</tspan></text></g><g class="cell" transform="translate(0, 28)"><circle class="swatch" r="13" fill="none" stroke="#ccc"/><text class="label" transform="translate( 18,&#10;          5)" font-family="&quot;Arial&quot;, sans-serif" font-size="10px"><tspan x="0" dy="0em">11470.0</tspan></text></g></g><text class="legendTitle" font-family="&quot;Arial&quot;, sans-serif" font-size="12px" font-weight="bold"><tspan x="0" dy="0em">bigger_item</tspan></text></g><g class="legendColor" transform="translate(0,89)"><g class="legendCells" transform="translate(0,15.5)"><g class="cell" transform="translate(0, 0)"><rect class="swatch" height="15" width="15" style="fill: rgb(0, 85, 191);"/><text class="label" transform="translate( 20, 12.5)" font-family="&quot;Arial&quot;, sans-serif" font-size="10px"><tspan x="0" dy="0em">0055BF</tspan></text></g><g class="cell" transform="translate(0, 20.5)"><rect class="swatch" height="15" width="15" style="fill: rgb(5, 19, 29);"/><text class="label" transform="translate( 20, 12.5)" font-family="&quot;Arial&quot;, sans-serif" font-size="10px"><tspan x="0" dy="0em">05131D</tspan></text></g><g class="cell" transform="translate(0, 41)"><rect class="swatch" height="15" width="15" style="fill: rgb(88, 57, 39);"/><text class="label" transform="translate( 20, 12.5)" font-family="&quot;Arial&quot;, sans-serif" font-size="10px"><tspan x="0" dy="0em">583927</tspan></text></g><g class="cell" transform="translate(0, 61.5)"><rect class="swatch" height="15" width="15" style="fill: rgb(108, 110, 104);"/><text class="label" transform="translate( 20, 12.5)" font-family="&quot;Arial&quot;, sans-serif" font-size="10px"><tspan x="0" dy="0em">6C6E68</tspan></text></g><g class="cell" transform="translate(0, 82)"><rect class="swatch" height="15" width="15" style="fill: rgb(201, 26, 9);"/><text class="label" transform="translate( 20, 12.5)" font-family="&quot;Arial&quot;, sans-serif" font-size="10px"><tspan x="0" dy="0em">C91A09</tspan></text></g><g class="cell" transform="translate(0, 102.5)"><rect class="swatch" height="15" width="15" style="fill: rgb(242, 205, 55);"/><text class="label" transform="translate( 20, 12.5)" font-family="&quot;Arial&quot;, sans-serif" font-size="10px"><tspan x="0" dy="0em">F2CD37</tspan></text></g><g class="cell" transform="translate(0, 123)"><rect class="swatch" height="15" width="15" style="fill: rgb(254, 138, 24);"/><text class="label" transform="translate( 20, 12.5)" font-family="&quot;Arial&quot;, sans-serif" font-size="10px"><tspan x="0" dy="0em">FE8A18</tspan></text></g><g class="cell" transform="translate(0, 143.5)"><rect class="swatch" height="15" width="15" style="fill: rgb(255, 255, 255);"/><text class="label" transform="translate( 20, 12.5)" font-family="&quot;Arial&quot;, sans-serif" font-size="10px"><tspan x="0" dy="0em">FFFFFF</tspan></text></g></g><text class="legendTitle" font-family="&quot;Arial&quot;, sans-serif" font-size="12px" font-weight="bold"><tspan x="0" dy="0em">item_part_group_rgb</tspan></text></g></g></g></svg>