<svg xmlns="http://www.w3.org/2000/svg" width="1005" height="600"><rect width="1005" height="600" x="0" y="0" fill="#FFFFFF" id="background"/><g id="series"><g transform="translate(0,0)"><g transform="translate(50,50)" clip-path="url(#serieClipPath)"><g id="axis"><g transform="translate(0,500)" fill="none" font-size="10" font-family="sans-serif" text-anchor="middle"><path class="domain" stroke="currentColor" d="M0,6V0H705V6"/><g class="tick" opacity="1" transform="translate(0,0)"><line stroke="currentColor" y2="6"/><text fill="currentColor" y="9" dy="0.71em">1,940</text></g><g class="tick" opacity="1" transform="translate(78,0)"><line stroke="currentColor" y2="6"/><text fill="currentColor" y="9" dy="0.71em">1,950</text></g><g class="tick" opacity="1" transform="translate(157,0)"><line stroke="currentColor" y2="6"/><text fill="currentColor" y="9" dy="0.71em">1,960</text></g><g class="tick" opacity="1" transform="translate(235,0)"><line stroke="currentColor" y2="6"/><text fill="currentColor" y="9" dy="0.71em">1,970</text></g><g class="tick" opacity="1" transform="translate(313,0)"><line stroke="currentColor" y2="6"/><text fill="currentColor" y="9" dy="0.71em">1,980</text></g><g class="tick" opacity="1" transform="translate(392,0)"><line stroke="currentColor" y2="6"/><text fill="currentColor" y="9" dy="0.71em">1,990</text></g><g class="tick" opacity="1" transform="translate(470,0)"><line stroke="currentColor" y2="6"/><text fill="currentColor" y="9" dy="0.71em">2,000</text></g><g class="tick" opacity="1" transform="translate(548,0)"><line stroke="currentColor" y2="6"/><text fill="currentColor" y="9" dy="0.71em">2,010</text></g><g class="tick" opacity="1" transform="translate(627,0)"><line stroke="currentColor" y2="6"/><text fill="currentColor" y="9" dy="0.71em">2,020</text></g><g class="tick" opacity="1" transform="translate(705,0)"><line stroke="currentColor" y2="6"/><text fill="currentColor" y="9" dy="0.71em">2,030</text></g><text x="705" dy="-5" text-anchor="end" style="font-family: Arial, sans-serif; font-size: 12px; fill: rgb(123, 123, 123); font-weight: bold;">year</text></g><g fill="none" font-size="10" font-family="sans-serif" text-anchor="end"><path class="domain" stroke="currentColor" d="M-6,500H0V0H-6"/><g class="tick" opacity="1" transform="translate(0,500)"><line stroke="currentColor" x2="-6"/><text fill="currentColor" x="-9" dy="0.32em">0</text></g><g class="tick" opacity="1" transform="translate(0,458)"><line stroke="currentColor" x2="-6"/><text fill="currentColor" x="-9" dy="0.32em">100</text></g><g class="tick" opacity="1" transform="translate(0,417)"><line stroke="currentColor" x2="-6"/><text fill="currentColor" x="-9" dy="0.32em">200</text></g><g class="tick" opacity="1" transform="translate(0,375)"><line stroke="currentColor" x2="-6"/><text fill="currentColor" x="-9" dy="0.32em">300</text></g><g class="tick" opacity="1" transform="translate(0,333)"><line stroke="currentColor" x2="-6"/><text fill="currentColor" x="-9" dy="0.32em">400</text></g><g class="tick" opacity="1" transform="translate(0,292)"><line stroke="currentColor" x2="-6"/><text fill="currentColor" x="-9" dy="0.32em">500</text></g><g class="tick" opacity="1" transform="translate(0,250)"><line stroke="currentColor" x2="-6"/><text fill="currentColor" x="-9" dy="0.32em">600</text></g><g class="tick" opacity="1" transform="translate(0,208)"><line stroke="currentColor" x2="-6"/><text fill="currentColor" x="-9" dy="0.32em">700</text></g><g class="tick" opacity="1" transform="translate(0,167)"><line stroke="currentColor" x2="-6"/><text fill="currentColor" x="-9" dy="0.32em">800</text></g><g class="tick" opacity="1" transform="translate(0,125)"><line stroke="currentColor" x2="-6"/><text fill="currentColor" x="-9" dy="0.32em">900</text></g><g class="tick" opacity="1" transform="translate(0,83)"><line stroke="currentColor" x2="-6"/><text fill="currentColor" x="-9" dy="0.32em">1,000</text></g><g class="tick" opacity="1" transform="translate(0,42)"><line stroke="currentColor" x2="-6"/><text fill="currentColor" x="-9" dy="0.32em">1,100</text></g><g class="tick" opacity="1" transform="translate(0,0)"><line stroke="currentColor" x2="-6"/><text fill="currentColor" x="-9" dy="0.32em">1,200</text></g><text x="4" text-anchor="start" dominant-baseline="hanging" style="font-family: Arial, sans-serif; font-size: 12px; fill: rgb(123, 123, 123); font-weight: bold;">n_sets_year</text></g></g><g id="viz"><g><circle cx="635" cy="1" fill="#7f7f7f" r="16" stroke="none"/></g><g><circle cx="588" cy="138" fill="#bcbd22" r="15" stroke="none"/></g><g><circle cx="642" cy="80" fill="#e377c2" r="15" stroke="none"/></g><g><circle cx="627" cy="27" fill="#e377c2" r="14" stroke="none"/></g><g><circle cx="603" cy="87" fill="#cccccc" r="13" stroke="none"/></g><g><circle cx="650" cy="94" fill="#e377c2" r="12" stroke="none"/></g><g><circle cx="493" cy="305" fill="#2f97ef" r="11" stroke="none"/></g><g><circle cx="548" cy="275" fill="#2f97ef" r="11" stroke="none"/></g><g><circle cx="533" cy="312" fill="#f8e71c" r="11" stroke="none"/></g><g><circle cx="509" cy="334" fill="#cccccc" r="11" stroke="none"/></g><g><circle cx="611" cy="97" fill="#380963" r="11" stroke="none"/></g><g><circle cx="525" cy="313" fill="#cccccc" r="11" stroke="none"/></g><g><circle cx="619" cy="67" fill="#cccccc" r="10" stroke="none"/></g><g><circle cx="658" cy="337" fill="#cccccc" r="10" stroke="none"/></g><g><circle cx="595" cy="124" fill="#d62728" r="10" stroke="none"/></g><g><circle cx="572" cy="188" fill="#f8e71c" r="8" stroke="none"/></g><g><circle cx="564" cy="194" fill="#cccccc" r="8" stroke="none"/></g><g><circle cx="486" cy="269" fill="#cccccc" r="8" stroke="none"/></g><g><circle cx="470" cy="342" fill="#cccccc" r="8" stroke="none"/></g><g><circle cx="580" cy="120" fill="#cccccc" r="8" stroke="none"/></g><g><circle cx="541" cy="277" fill="#f8e71c" r="8" stroke="none"/></g><g><circle cx="556" cy="238" fill="#cccccc" r="8" stroke="none"/></g><g><circle cx="517" cy="330" fill="#f5a623" r="7" stroke="none"/></g><g><circle cx="501" cy="318" fill="#f8e71c" r="7" stroke="none"/></g><g><circle cx="400" cy="428" fill="#2f97ef" r="7" stroke="none"/></g><g><circle cx="439" cy="416" fill="#2f97ef" r="7" stroke="none"/></g><g><circle cx="431" cy="418" fill="#2f97ef" r="6" stroke="none"/></g><g><circle cx="353" cy="423" fill="#2f97ef" r="6" stroke="none"/></g><g><circle cx="392" cy="448" fill="#2f97ef" r="6" stroke="none"/></g><g><circle cx="447" cy="384" fill="#2f97ef" r="6" stroke="none"/></g><g><circle cx="478" cy="322" fill="#cccccc" r="6" stroke="none"/></g><g><circle cx="462" cy="347" fill="#cccccc" r="6" stroke="none"/></g><g><circle cx="454" cy="332" fill="#cccccc" r="6" stroke="none"/></g><g><circle cx="407" cy="441" fill="#cccccc" r="5" stroke="none"/></g><g><circle cx="298" cy="466" fill="#8c564b" r="5" stroke="none"/></g><g><circle cx="423" cy="429" fill="#cccccc" r="5" stroke="none"/></g><g><circle cx="212" cy="486" fill="#cccccc" r="4" stroke="none"/></g><g><circle cx="313" cy="448" fill="#cccccc" r="4" stroke="none"/></g><g><circle cx="165" cy="473" fill="#cccccc" r="4" stroke="none"/></g><g><circle cx="384" cy="438" fill="#cccccc" r="4" stroke="none"/></g><g><circle cx="290" cy="451" fill="#cccccc" r="4" stroke="none"/></g><g><circle cx="329" cy="462" fill="#cccccc" r="4" stroke="none"/></g><g><circle cx="259" cy="469" fill="#cccccc" r="4" stroke="none"/></g><g><circle cx="204" cy="415" fill="#cccccc" r="4" stroke="none"/></g><g><circle cx="282" cy="467" fill="#2f97ef" r="4" stroke="none"/></g><g><circle cx="321" cy="463" fill="#8b572a" r="4" stroke="none"/></g><g><circle cx="337" cy="469" fill="#cccccc" r="4" stroke="none"/></g><g><circle cx="212" cy="486" fill="#cccccc" r="4" stroke="none"/></g><g><circle cx="368" cy="401" fill="#cccccc" r="4" stroke="none"/></g><g><circle cx="415" cy="441" fill="#cccccc" r="4" stroke="none"/></g><g><circle cx="172" cy="473" fill="#cccccc" r="4" stroke="none"/></g><g><circle cx="274" cy="483" fill="#17becf" r="4" stroke="none"/></g><g><circle cx="345" cy="460" fill="#2f97ef" r="4" stroke="none"/></g><g><circle cx="227" cy="460" fill="#cccccc" r="4" stroke="none"/></g><g><circle cx="360" cy="429" fill="#cccccc" r="4" stroke="none"/></g><g><circle cx="251" cy="482" fill="#2f97ef" r="4" stroke="none"/></g><g><circle cx="376" cy="465" fill="#cccccc" r="4" stroke="none"/></g><g><circle cx="243" cy="475" fill="#cccccc" r="4" stroke="none"/></g><g><circle cx="180" cy="401" fill="#cccccc" r="3" stroke="none"/></g><g><circle cx="196" cy="479" fill="#cccccc" r="3" stroke="none"/></g><g><circle cx="266" cy="483" fill="#cccccc" r="3" stroke="none"/></g><g><circle cx="219" cy="482" fill="#cccccc" r="3" stroke="none"/></g><g><circle cx="157" cy="499" fill="#2f97ef" r="3" stroke="none"/></g><g><circle cx="235" cy="481" fill="#17becf" r="3" stroke="none"/></g><g><circle cx="306" cy="457" fill="#cccccc" r="3" stroke="none"/></g><g><circle cx="188" cy="453" fill="#cccccc" r="2" stroke="none"/></g><g><circle cx="133" cy="486" fill="#cccccc" r="2" stroke="none"/></g><g><circle cx="71" cy="497" fill="#cccccc" r="2" stroke="none"/></g><g><circle cx="141" cy="444" fill="#cccccc" r="2" stroke="none"/></g><g id="labels"><g transform="translate(635,1)"><text x="0" y="0" text-anchor="middle" dominant-baseline="text-before-edge" transform="translate(0,0)"/></g><g transform="translate(588,138)"><text x="0" y="0" text-anchor="middle" dominant-baseline="text-before-edge" transform="translate(0,0)"/></g><g transform="translate(642,80)"><text x="0" y="0" text-anchor="middle" dominant-baseline="text-before-edge" transform="translate(0,0)"/></g><g transform="translate(627,27)"><text x="0" y="0" text-anchor="middle" dominant-baseline="text-before-edge" transform="translate(0,0)"/></g><g transform="translate(603,87)"><text x="0" y="0" text-anchor="middle" dominant-baseline="text-before-edge" transform="translate(0,0)"/></g><g transform="translate(650,94)"><text x="0" y="0" text-anchor="middle" dominant-baseline="text-before-edge" transform="translate(0,0)"/></g><g transform="translate(493,305)"><text x="0" y="0" text-anchor="middle" dominant-baseline="text-before-edge" transform="translate(0,0)"/></g><g transform="translate(548,275)"><text x="0" y="0" text-anchor="middle" dominant-baseline="text-before-edge" transform="translate(0,0)"/></g><g transform="translate(533,312)"><text x="0" y="0" text-anchor="middle" dominant-baseline="text-before-edge" transform="translate(0,0)"/></g><g transform="translate(509,334)"><text x="0" y="0" text-anchor="middle" dominant-baseline="text-before-edge" transform="translate(0,0)"/></g><g transform="translate(611,97)"><text x="0" y="0" text-anchor="middle" dominant-baseline="text-before-edge" transform="translate(0,0)"/></g><g transform="translate(525,313)"><text x="0" y="0" text-anchor="middle" dominant-baseline="text-before-edge" transform="translate(0,0)"/></g><g transform="translate(619,67)"><text x="0" y="0" text-anchor="middle" dominant-baseline="text-before-edge" transform="translate(0,0)"/></g><g transform="translate(658,337)"><text x="0" y="0" text-anchor="middle" dominant-baseline="text-before-edge" transform="translate(0,0)"/></g><g transform="translate(595,124)"><text x="0" y="0" text-anchor="middle" dominant-baseline="text-before-edge" transform="translate(0,0)"/></g><g transform="translate(572,188)"><text x="0" y="0" text-anchor="middle" dominant-baseline="text-before-edge" transform="translate(0,0)"/></g><g transform="translate(564,194)"><text x="0" y="0" text-anchor="middle" dominant-baseline="text-before-edge" transform="translate(0,0)"/></g><g transform="translate(486,269)"><text x="0" y="0" text-anchor="middle" dominant-baseline="text-before-edge" transform="translate(0,0)"/></g><g transform="translate(470,342)"><text x="0" y="0" text-anchor="middle" dominant-baseline="text-before-edge" transform="translate(0,0)"/></g><g transform="translate(580,120)"><text x="0" y="0" text-anchor="middle" dominant-baseline="text-before-edge" transform="translate(0,0)"/></g><g transform="translate(541,277)"><text x="0" y="0" text-anchor="middle" dominant-baseline="text-before-edge" transform="translate(0,0)"/></g><g transform="translate(556,238)"><text x="0" y="0" text-anchor="middle" dominant-baseline="text-before-edge" transform="translate(0,0)"/></g><g transform="translate(517,330)"><text x="0" y="0" text-anchor="middle" dominant-baseline="text-before-edge" transform="translate(0,0)"/></g><g transform="translate(501,318)"><text x="0" y="0" text-anchor="middle" dominant-baseline="text-before-edge" transform="translate(0,0)"/></g><g transform="translate(400,428)"><text x="0" y="0" text-anchor="middle" dominant-baseline="text-before-edge" transform="translate(0,0)"/></g><g transform="translate(439,416)"><text x="0" y="0" text-anchor="middle" dominant-baseline="text-before-edge" transform="translate(0,0)"/></g><g transform="translate(431,418)"><text x="0" y="0" text-anchor="middle" dominant-baseline="text-before-edge" transform="translate(0,0)"/></g><g transform="translate(353,423)"><text x="0" y="0" text-anchor="middle" dominant-baseline="text-before-edge" transform="translate(0,0)"/></g><g transform="translate(392,448)"><text x="0" y="0" text-anchor="middle" dominant-baseline="text-before-edge" transform="translate(0,0)"/></g><g transform="translate(447,384)"><text x="0" y="0" text-anchor="middle" dominant-baseline="text-before-edge" transform="translate(0,0)"/></g><g transform="translate(478,322)"><text x="0" y="0" text-anchor="middle" dominant-baseline="text-before-edge" transform="translate(0,0)"/></g><g transform="translate(462,347)"><text x="0" y="0" text-anchor="middle" dominant-baseline="text-before-edge" transform="translate(0,0)"/></g><g transform="translate(454,332)"><text x="0" y="0" text-anchor="middle" dominant-baseline="text-before-edge" transform="translate(0,0)"/></g><g transform="translate(407,441)"><text x="0" y="0" text-anchor="middle" dominant-baseline="text-before-edge" transform="translate(0,0)"/></g><g transform="translate(298,466)"><text x="0" y="0" text-anchor="middle" dominant-baseline="text-before-edge" transform="translate(0,0)"/></g><g transform="translate(423,429)"><text x="0" y="0" text-anchor="middle" dominant-baseline="text-before-edge" transform="translate(0,0)"/></g><g transform="translate(212,486)"><text x="0" y="0" text-anchor="middle" dominant-baseline="text-before-edge" transform="translate(0,0)"/></g><g transform="translate(313,448)"><text x="0" y="0" text-anchor="middle" dominant-baseline="text-before-edge" transform="translate(0,0)"/></g><g transform="translate(165,473)"><text x="0" y="0" text-anchor="middle" dominant-baseline="text-before-edge" transform="translate(0,0)"/></g><g transform="translate(384,438)"><text x="0" y="0" text-anchor="middle" dominant-baseline="text-before-edge" transform="translate(0,0)"/></g><g transform="translate(290,451)"><text x="0" y="0" text-anchor="middle" dominant-baseline="text-before-edge" transform="translate(0,0)"/></g><g transform="translate(329,462)"><text x="0" y="0" text-anchor="middle" dominant-baseline="text-before-edge" transform="translate(0,0)"/></g><g transform="translate(259,469)"><text x="0" y="0" text-anchor="middle" dominant-baseline="text-before-edge" transform="translate(0,0)"/></g><g transform="translate(204,415)"><text x="0" y="0" text-anchor="middle" dominant-baseline="text-before-edge" transform="translate(0,0)"/></g><g transform="translate(282,467)"><text x="0" y="0" text-anchor="middle" dominant-baseline="text-before-edge" transform="translate(0,0)"/></g><g transform="translate(321,463)"><text x="0" y="0" text-anchor="middle" dominant-baseline="text-before-edge" transform="translate(0,0)"/></g><g transform="translate(337,469)"><text x="0" y="0" text-anchor="middle" dominant-baseline="text-before-edge" transform="translate(0,0)"/></g><g transform="translate(212,486)"><text x="0" y="0" text-anchor="middle" dominant-baseline="text-before-edge" transform="translate(0,0)"/></g><g transform="translate(368,401)"><text x="0" y="0" text-anchor="middle" dominant-baseline="text-before-edge" transform="translate(0,0)"/></g><g transform="translate(415,441)"><text x="0" y="0" text-anchor="middle" dominant-baseline="text-before-edge" transform="translate(0,0)"/></g><g transform="translate(172,473)"><text x="0" y="0" text-anchor="middle" dominant-baseline="text-before-edge" transform="translate(0,0)"/></g><g transform="translate(274,483)"><text x="0" y="0" text-anchor="middle" dominant-baseline="text-before-edge" transform="translate(0,0)"/></g><g transform="translate(345,460)"><text x="0" y="0" text-anchor="middle" dominant-baseline="text-before-edge" transform="translate(0,0)"/></g><g transform="translate(227,460)"><text x="0" y="0" text-anchor="middle" dominant-baseline="text-before-edge" transform="translate(0,0)"/></g><g transform="translate(360,429)"><text x="0" y="0" text-anchor="middle" dominant-baseline="text-before-edge" transform="translate(0,0)"/></g><g transform="translate(251,482)"><text x="0" y="0" text-anchor="middle" dominant-baseline="text-before-edge" transform="translate(0,0)"/></g><g transform="translate(376,465)"><text x="0" y="0" text-anchor="middle" dominant-baseline="text-before-edge" transform="translate(0,0)"/></g><g transform="translate(243,475)"><text x="0" y="0" text-anchor="middle" dominant-baseline="text-before-edge" transform="translate(0,0)"/></g><g transform="translate(180,401)"><text x="0" y="0" text-anchor="middle" dominant-baseline="text-before-edge" transform="translate(0,0)"/></g><g transform="translate(196,479)"><text x="0" y="0" text-anchor="middle" dominant-baseline="text-before-edge" transform="translate(0,0)"/></g><g transform="translate(266,483)"><text x="0" y="0" text-anchor="middle" dominant-baseline="text-before-edge" transform="translate(0,0)"/></g><g transform="translate(219,482)"><text x="0" y="0" text-anchor="middle" dominant-baseline="text-before-edge" transform="translate(0,0)"/></g><g transform="translate(157,499)"><text x="0" y="0" text-anchor="middle" dominant-baseline="text-before-edge" transform="translate(0,0)"/></g><g transform="translate(235,481)"><text x="0" y="0" text-anchor="middle" dominant-baseline="text-before-edge" transform="translate(0,0)"/></g><g transform="translate(306,457)"><text x="0" y="0" text-anchor="middle" dominant-baseline="text-before-edge" transform="translate(0,0)"/></g><g transform="translate(188,453)"><text x="0" y="0" text-anchor="middle" dominant-baseline="text-before-edge" transform="translate(0,0)"/></g><g transform="translate(133,486)"><text x="0" y="0" text-anchor="middle" dominant-baseline="text-before-edge" transform="translate(0,0)"/></g><g transform="translate(71,497)"><text x="0" y="0" text-anchor="middle" dominant-baseline="text-before-edge" transform="translate(0,0)"/></g><g transform="translate(141,444)"><text x="0" y="0" text-anchor="middle" dominant-baseline="text-before-edge" transform="translate(0,0)"/></g></g></g></g><text y="4" x="4" style="font-family: Arial, sans-serif; font-size: 12px; fill: black; font-weight: bold; dominant-baseline: hanging;"/></g></g><g id="grid"><rect x="0" y="0" width="805" height="600" fill="none" stroke="#ccc"/></g><clipPath id="serieClipPath"><rect x="-50" y="-50" width="805" height="600"/></clipPath><g id="legend" transform="translate(805,50)"><g transform="translate(5,0)"><g class="legendSize" transform="translate(0,0)"><g class="legendCells" transform="translate(16,15.5)"><g class="cell" transform="translate(0, 2)"><circle class="swatch" r="2" fill="none" stroke="#ccc"/><text class="label" transform="translate( 21,&#10;          5)" font-family="&quot;Arial&quot;, sans-serif" font-size="10px"><tspan x="0" dy="0em">149.0</tspan></text></g><g class="cell" transform="translate(0, 33.5)"><circle class="swatch" r="16" fill="none" stroke="#ccc"/><text class="label" transform="translate( 21,&#10;          5)" font-family="&quot;Arial&quot;, sans-serif" font-size="10px"><tspan x="0" dy="0em">11695.0</tspan></text></g></g><text class="legendTitle" font-family="&quot;Arial&quot;, sans-serif" font-size="12px" font-weight="bold"><tspan x="0" dy="0em">bigger_set</tspan></text></g><g class="legendColor" transform="translate(0,97.5)"><g class="legendCells" transform="translate(0,15.5)"><g class="cell" transform="translate(0, 0)"><rect class="swatch" height="15" width="15" style="fill: rgb(139, 87, 42);"/><text class="label" transform="translate( 20, 12.5)" font-family="&quot;Arial&quot;, sans-serif" font-size="10px"><tspan x="0" dy="0em">Castle</tspan></text></g><g class="cell" transform="translate(0, 20.5)"><rect class="swatch" height="15" width="15" style="fill: rgb(248, 231, 28);"/><text class="label" transform="translate( 20, 12.5)" font-family="&quot;Arial&quot;, sans-serif" font-size="10px"><tspan x="0" dy="0em">Creator</tspan></text></g><g class="cell" transform="translate(0, 41)"><rect class="swatch" height="15" width="15" style="fill: rgb(47, 151, 239);"/><text class="label" transform="translate( 20, 12.5)" font-family="&quot;Arial&quot;, sans-serif" font-size="10px"><tspan x="0" dy="0em">Educational and Dacta</tspan></text></g><g class="cell" transform="translate(0, 61.5)"><rect class="swatch" height="15" width="15" style="fill: rgb(214, 39, 40);"/><text class="label" transform="translate( 20, 12.5)" font-family="&quot;Arial&quot;, sans-serif" font-size="10px"><tspan x="0" dy="0em">Ghostbusters</tspan></text></g><g class="cell" transform="translate(0, 82)"><rect class="swatch" height="15" width="15" style="fill: rgb(56, 9, 99);"/><text class="label" transform="translate( 20, 12.5)" font-family="&quot;Arial&quot;, sans-serif" font-size="10px"><tspan x="0" dy="0em">Harry Potter</tspan></text></g><g class="cell" transform="translate(0, 102.5)"><rect class="swatch" height="15" width="15" style="fill: rgb(140, 86, 75);"/><text class="label" transform="translate( 20, 12.5)" font-family="&quot;Arial&quot;, sans-serif" font-size="10px"><tspan x="0" dy="0em">Hobby Sets</tspan></text></g><g class="cell" transform="translate(0, 123)"><rect class="swatch" height="15" width="15" style="fill: rgb(227, 119, 194);"/><text class="label" transform="translate( 20, 12.5)" font-family="&quot;Arial&quot;, sans-serif" font-size="10px"><tspan x="0" dy="0em">Icons</tspan></text></g><g class="cell" transform="translate(0, 143.5)"><rect class="swatch" height="15" width="15" style="fill: rgb(127, 127, 127);"/><text class="label" transform="translate( 20, 12.5)" font-family="&quot;Arial&quot;, sans-serif" font-size="10px"><tspan x="0" dy="0em">LEGO Art</tspan></text></g><g class="cell" transform="translate(0, 164)"><rect class="swatch" height="15" width="15" style="fill: rgb(188, 189, 34);"/><text class="label" transform="translate( 20, 12.5)" font-family="&quot;Arial&quot;, sans-serif" font-size="10px"><tspan x="0" dy="0em">Legends of Chima</tspan></text></g><g class="cell" transform="translate(0, 184.5)"><rect class="swatch" height="15" width="15" style="fill: rgb(23, 190, 207);"/><text class="label" transform="translate( 20, 12.5)" font-family="&quot;Arial&quot;, sans-serif" font-size="10px"><tspan x="0" dy="0em">Legoland</tspan></text></g><g class="cell" transform="translate(0, 205)"><rect class="swatch" height="15" width="15" style="fill: rgb(245, 166, 35);"/><text class="label" transform="translate( 20, 12.5)" font-family="&quot;Arial&quot;, sans-serif" font-size="10px"><tspan x="0" dy="0em">Make &amp; Create</tspan></text></g><g class="cell" transform="translate(0, 225.5)"><rect class="swatch" height="15" width="15" style="fill: rgb(204, 204, 204);"/><text class="label" transform="translate( 20, 12.5)" font-family="&quot;Arial&quot;, sans-serif" font-size="10px"><tspan x="0" dy="0em">Mindstorms</tspan></text></g><g class="cell" transform="translate(0, 246)"><rect class="swatch" height="15" width="15" style="fill: rgb(204, 204, 204);"/><text class="label" transform="translate( 20, 12.5)" font-family="&quot;Arial&quot;, sans-serif" font-size="10px"><tspan x="0" dy="0em">Model Team</tspan></text></g><g class="cell" transform="translate(0, 266.5)"><rect class="swatch" height="15" width="15" style="fill: rgb(204, 204, 204);"/><text class="label" transform="translate( 20, 12.5)" font-family="&quot;Arial&quot;, sans-serif" font-size="10px"><tspan x="0" dy="0em">Modular Buildings</tspan></text></g><g class="cell" transform="translate(0, 287)"><rect class="swatch" height="15" width="15" style="fill: rgb(204, 204, 204);"/><text class="label" transform="translate( 20, 12.5)" font-family="&quot;Arial&quot;, sans-serif" font-size="10px"><tspan x="0" dy="0em">Pirates</tspan></text></g><g class="cell" transform="translate(0, 307.5)"><rect class="swatch" height="15" width="15" style="fill: rgb(204, 204, 204);"/><text class="label" transform="translate( 20, 12.5)" font-family="&quot;Arial&quot;, sans-serif" font-size="10px"><tspan x="0" dy="0em">Sculptures</tspan></text></g><g class="cell" transform="translate(0, 328)"><rect class="swatch" height="15" width="15" style="fill: rgb(204, 204, 204);"/><text class="label" transform="translate( 20, 12.5)" font-family="&quot;Arial&quot;, sans-serif" font-size="10px"><tspan x="0" dy="0em">Star Wars</tspan></text></g><g class="cell" transform="translate(0, 348.5)"><rect class="swatch" height="15" width="15" style="fill: rgb(204, 204, 204);"/><text class="label" transform="translate( 20, 12.5)" font-family="&quot;Arial&quot;, sans-serif" font-size="10px"><tspan x="0" dy="0em">Super Heroes DC</tspan></text></g><g class="cell" transform="translate(0, 369)"><rect class="swatch" height="15" width="15" style="fill: rgb(204, 204, 204);"/><text class="label" transform="translate( 20, 12.5)" font-family="&quot;Arial&quot;, sans-serif" font-size="10px"><tspan x="0" dy="0em">System</tspan></text></g><g class="cell" transform="translate(0, 389.5)"><rect class="swatch" height="15" width="15" style="fill: rgb(204, 204, 204);"/><text class="label" transform="translate( 20, 12.5)" font-family="&quot;Arial&quot;, sans-serif" font-size="10px"><tspan x="0" dy="0em">Technic</tspan></text></g><g class="cell" transform="translate(0, 410)"><rect class="swatch" height="15" width="15" style="fill: rgb(204, 204, 204);"/><text class="label" transform="translate( 20, 12.5)" font-family="&quot;Arial&quot;, sans-serif" font-size="10px"><tspan x="0" dy="0em">Train</tspan></text></g><g class="cell" transform="translate(0, 430.5)"><rect class="swatch" height="15" width="15" style="fill: rgb(204, 204, 204);"/><text class="label" transform="translate( 20, 12.5)" font-family="&quot;Arial&quot;, sans-serif" font-size="10px"><tspan x="0" dy="0em">Universal Building Set</tspan></text></g></g><text class="legendTitle" font-family="&quot;Arial&quot;, sans-serif" font-size="12px" font-weight="bold"><tspan x="0" dy="0em">parent_theme_name</tspan></text></g></g></g></svg>