<svg xmlns="http://www.w3.org/2000/svg" width="805" height="600"><rect width="805" height="600" x="0" y="0" fill="#FFFFFF" id="background"/><g id="viz"><g transform="translate(0,0)"><g transform="translate(50,20)"><g class="bars"><rect id="undefined - 1949" x="0.9986595174262334" y="551.6933333333333" height="8.306666666666729" width="9.942536666140988" fill="#ff7f0e"/><rect id="undefined - 1957" x="11.939855700993496" y="548.8933333333333" height="11.106666666666683" width="9.942536666140988" fill="#ff7f0e"/><rect id="undefined - 1958" x="22.88105188456076" y="553.0466666666667" height="6.953333333333262" width="9.942536666140988" fill="#1f77b4"/><rect id="undefined - 1960" x="33.82224806812802" y="537.7866666666666" height="22.213333333333367" width="9.942536666140988" fill="#ff7f0e"/><rect id="undefined - 1961" x="44.76344425169528" y="524.5333333333333" height="35.4666666666667" width="9.942536666140988" fill="#ff7f0e"/><rect id="undefined - 1962" x="55.70464043526255" y="524.7666666666667" height="35.23333333333335" width="9.942536666140988" fill="#1f77b4"/><rect id="undefined - 1963" x="66.6458366188298" y="538.16" height="21.840000000000032" width="9.942536666140988" fill="#1f77b4"/><rect id="undefined - 1964" x="77.58703280239708" y="548.1933333333334" height="11.806666666666615" width="9.942536666140988" fill="#1f77b4"/><rect id="undefined - 1965" x="88.52822898596433" y="545.8133333333334" height="14.18666666666661" width="9.942536666140988" fill="#1f77b4"/><rect id="undefined - 1966" x="99.46942516953159" y="521.8733333333333" height="38.126666666666665" width="9.942536666140988" fill="#ff7f0e"/><rect id="undefined - 1967" x="110.41062135309886" y="493.5466666666666" height="66.45333333333338" width="9.942536666140988" fill="#1f77b4"/><rect id="undefined - 1968" x="121.35181753666612" y="538.0666666666666" height="21.933333333333394" width="9.942536666140988" fill="#1f77b4"/><rect id="undefined - 1969" x="132.29301372023338" y="522.76" height="37.24000000000001" width="9.942536666140988" fill="#1f77b4"/><rect id="undefined - 1970" x="143.23420990380063" y="538.02" height="21.980000000000018" width="9.942536666140988" fill="#1f77b4"/><rect id="undefined - 1971" x="154.17540608736792" y="517.2066666666667" height="42.793333333333294" width="9.942536666140988" fill="#ff7f0e"/><rect id="undefined - 1972" x="165.11660227093518" y="517.9533333333333" height="42.04666666666674" width="9.942536666140988" fill="#1f77b4"/><rect id="undefined - 1973" x="176.05779845450243" y="528.9666666666667" height="31.033333333333303" width="9.942536666140988" fill="#1f77b4"/><rect id="undefined - 1974" x="186.9989946380697" y="540.7733333333333" height="19.226666666666688" width="9.942536666140988" fill="#1f77b4"/><rect id="undefined - 1975" x="197.94019082163695" y="532.1866666666667" height="27.813333333333276" width="9.942536666140988" fill="#1f77b4"/><rect id="undefined - 1976" x="208.88138700520423" y="528.1266666666667" height="31.873333333333335" width="9.942536666140988" fill="#1f77b4"/><rect id="undefined - 1977" x="219.8225831887715" y="531.6266666666667" height="28.373333333333335" width="9.942536666140988" fill="#1f77b4"/><rect id="undefined - 1978" x="230.76377937233875" y="514.1733333333333" height="45.82666666666671" width="9.942536666140988" fill="#ff7f0e"/><rect id="undefined - 1979" x="241.704975555906" y="536.1066666666667" height="23.893333333333317" width="9.942536666140988" fill="#1f77b4"/><rect id="undefined - 1980" x="252.64617173947326" y="523.2733333333333" height="36.72666666666669" width="9.942536666140988" fill="#1f77b4"/><rect id="undefined - 1981" x="263.5873679230405" y="523.8333333333334" height="36.16666666666663" width="9.942536666140988" fill="#1f77b4"/><rect id="undefined - 1982" x="274.5285641066078" y="525.28" height="34.72000000000003" width="9.942536666140988" fill="#1f77b4"/><rect id="undefined - 1983" x="285.46976029017503" y="533.4" height="26.600000000000023" width="9.942536666140988" fill="#1f77b4"/><rect id="undefined - 1984" x="296.4109564737423" y="518.0466666666667" height="41.95333333333326" width="9.942536666140988" fill="#1f77b4"/><rect id="undefined - 1985" x="307.3521526573096" y="488.4133333333333" height="71.5866666666667" width="9.942536666140988" fill="#ff7f0e"/><rect id="undefined - 1986" x="318.29334884087683" y="528.8266666666667" height="31.17333333333329" width="9.942536666140988" fill="#1f77b4"/><rect id="undefined - 1987" x="329.2345450244441" y="526.3533333333334" height="33.64666666666665" width="9.942536666140988" fill="#1f77b4"/><rect id="undefined - 1988" x="340.17574120801135" y="518.0933333333334" height="41.90666666666664" width="9.942536666140988" fill="#1f77b4"/><rect id="undefined - 1989" x="351.11693739157863" y="517.16" height="42.84000000000003" width="9.942536666140988" fill="#1f77b4"/><rect id="undefined - 1990" x="362.0581335751459" y="488.4133333333333" height="71.5866666666667" width="9.942536666140988" fill="#ff7f0e"/><rect id="undefined - 1991" x="372.99932975871315" y="457.5666666666667" height="102.43333333333328" width="9.942536666140988" fill="#ff7f0e"/><rect id="undefined - 1992" x="383.94052594228043" y="515.48" height="44.51999999999998" width="9.942536666140988" fill="#1f77b4"/><rect id="undefined - 1993" x="394.88172212584766" y="516.88" height="43.120000000000005" width="9.942536666140988" fill="#1f77b4"/><rect id="undefined - 1994" x="405.82291830941494" y="497.18666666666667" height="62.81333333333333" width="9.942536666140988" fill="#1f77b4"/><rect id="undefined - 1995" x="416.76411449298223" y="479.26666666666665" height="80.73333333333335" width="9.942536666140988" fill="#1f77b4"/><rect id="undefined - 1996" x="427.70531067654946" y="441.37333333333333" height="118.62666666666667" width="9.942536666140988" fill="#ff7f0e"/><rect id="undefined - 1997" x="438.64650686011674" y="493.87333333333333" height="66.12666666666667" width="9.942536666140988" fill="#1f77b4"/><rect id="undefined - 1998" x="449.587703043684" y="480.1066666666666" height="79.89333333333337" width="9.942536666140988" fill="#1f77b4"/><rect id="undefined - 1999" x="460.52889922725126" y="494.38666666666666" height="65.61333333333334" width="9.942536666140988" fill="#1f77b4"/><rect id="undefined - 2000" x="471.47009541081854" y="424.7133333333333" height="135.2866666666667" width="9.942536666140988" fill="#ff7f0e"/><rect id="undefined - 2001" x="482.4112915943858" y="472.8266666666667" height="87.17333333333329" width="9.942536666140988" fill="#1f77b4"/><rect id="undefined - 2002" x="493.35248777795306" y="414.58666666666664" height="145.41333333333336" width="9.942536666140988" fill="#ff7f0e"/><rect id="undefined - 2003" x="504.2936839615203" y="314.86" height="245.14" width="9.942536666140988" fill="#ff7f0e"/><rect id="undefined - 2004" x="515.2348801450876" y="466.6666666666667" height="93.33333333333331" width="9.942536666140988" fill="#1f77b4"/><rect id="undefined - 2005" x="526.1760763286547" y="305.1066666666666" height="254.89333333333337" width="9.942536666140988" fill="#ff7f0e"/><rect id="undefined - 2006" x="537.1172725122221" y="466.6666666666667" height="93.33333333333331" width="9.942536666140988" fill="#1f77b4"/><rect id="undefined - 2007" x="548.0584686957893" y="317.4266666666666" height="242.57333333333338" width="9.942536666140988" fill="#1f77b4"/><rect id="undefined - 2008" x="558.9996648793567" y="283.64" height="276.36" width="9.942536666140988" fill="#ff7f0e"/><rect id="undefined - 2009" x="569.9408610629239" y="407.82000000000005" height="152.17999999999995" width="9.942536666140988" fill="#1f77b4"/><rect id="undefined - 2010" x="580.8820572464911" y="317.3333333333333" height="242.66666666666669" width="9.942536666140988" fill="#1f77b4"/><rect id="undefined - 2011" x="591.8232534300585" y="412.9066666666667" height="147.0933333333333" width="9.942536666140988" fill="#1f77b4"/><rect id="undefined - 2012" x="602.7644496136256" y="430.64" height="129.36" width="9.942536666140988" fill="#1f77b4"/><rect id="undefined - 2013" x="613.705645797193" y="420.5133333333333" height="139.48666666666668" width="9.942536666140988" fill="#1f77b4"/><rect id="undefined - 2014" x="624.6468419807602" y="406.1866666666667" height="153.81333333333328" width="9.942536666140988" fill="#1f77b4"/><rect id="undefined - 2015" x="635.5880381643274" y="93.93999999999997" height="466.06000000000006" width="9.942536666140988" fill="#ff7f0e"/><rect id="undefined - 2016" x="646.5292343478948" y="343.37333333333333" height="216.62666666666667" width="9.942536666140988" fill="#1f77b4"/><rect id="undefined - 2017" x="657.470430531462" y="208.0866666666667" height="351.9133333333333" width="9.942536666140988" fill="#1f77b4"/><rect id="undefined - 2018" x="668.4116267150293" y="279.06666666666666" height="280.93333333333334" width="9.942536666140988" fill="#1f77b4"/><rect id="undefined - 2019" x="679.3528228985965" y="336.7466666666666" height="223.2533333333334" width="9.942536666140988" fill="#1f77b4"/><rect id="undefined - 2020" x="690.2940190821637" y="138.32" height="421.68" width="9.942536666140988" fill="#1f77b4"/><rect id="undefined - 2021" x="701.2352152657311" y="14.23333333333332" height="545.7666666666667" width="9.942536666140988" fill="#ff7f0e"/><rect id="undefined - 2022" x="712.1764114492983" y="93.28666666666665" height="466.71333333333337" width="9.942536666140988" fill="#1f77b4"/><rect id="undefined - 2023" x="723.1176076328657" y="271.55333333333334" height="288.44666666666666" width="9.942536666140988" fill="#1f77b4"/><rect id="undefined - 2024" x="734.0588038164328" y="363.53333333333336" height="196.46666666666664" width="9.942536666140988" fill="#1f77b4"/></g><g id="xAxis" transform="translate(0,560)" fill="none" font-size="10" font-family="sans-serif" text-anchor="middle"><path class="domain" stroke="currentColor" d="M0,0H745"/><g class="tick" opacity="1" transform="translate(5.9699278504967275,0)"><line stroke="currentColor" y2="6"/><text fill="currentColor" y="9" dy="0.71em">1949</text></g><g class="tick" opacity="1" transform="translate(16.911124034063988,0)"><line stroke="currentColor" y2="6"/><text fill="currentColor" y="9" dy="0.71em">1957</text></g><g class="tick" opacity="1" transform="translate(27.852320217631252,0)"><line stroke="currentColor" y2="6"/><text fill="currentColor" y="9" dy="0.71em">1958</text></g><g class="tick" opacity="1" transform="translate(38.79351640119852,0)"><line stroke="currentColor" y2="6"/><text fill="currentColor" y="9" dy="0.71em">1960</text></g><g class="tick" opacity="1" transform="translate(49.734712584765774,0)"><line stroke="currentColor" y2="6"/><text fill="currentColor" y="9" dy="0.71em">1961</text></g><g class="tick" opacity="1" transform="translate(60.675908768333045,0)"><line stroke="currentColor" y2="6"/><text fill="currentColor" y="9" dy="0.71em">1962</text></g><g class="tick" opacity="1" transform="translate(71.6171049519003,0)"><line stroke="currentColor" y2="6"/><text fill="currentColor" y="9" dy="0.71em">1963</text></g><g class="tick" opacity="1" transform="translate(82.55830113546757,0)"><line stroke="currentColor" y2="6"/><text fill="currentColor" y="9" dy="0.71em">1964</text></g><g class="tick" opacity="1" transform="translate(93.49949731903483,0)"><line stroke="currentColor" y2="6"/><text fill="currentColor" y="9" dy="0.71em">1965</text></g><g class="tick" opacity="1" transform="translate(104.44069350260209,0)"><line stroke="currentColor" y2="6"/><text fill="currentColor" y="9" dy="0.71em">1966</text></g><g class="tick" opacity="1" transform="translate(115.38188968616936,0)"><line stroke="currentColor" y2="6"/><text fill="currentColor" y="9" dy="0.71em">1967</text></g><g class="tick" opacity="1" transform="translate(126.32308586973662,0)"><line stroke="currentColor" y2="6"/><text fill="currentColor" y="9" dy="0.71em">1968</text></g><g class="tick" opacity="1" transform="translate(137.26428205330387,0)"><line stroke="currentColor" y2="6"/><text fill="currentColor" y="9" dy="0.71em">1969</text></g><g class="tick" opacity="1" transform="translate(148.20547823687113,0)"><line stroke="currentColor" y2="6"/><text fill="currentColor" y="9" dy="0.71em">1970</text></g><g class="tick" opacity="1" transform="translate(159.14667442043842,0)"><line stroke="currentColor" y2="6"/><text fill="currentColor" y="9" dy="0.71em">1971</text></g><g class="tick" opacity="1" transform="translate(170.08787060400567,0)"><line stroke="currentColor" y2="6"/><text fill="currentColor" y="9" dy="0.71em">1972</text></g><g class="tick" opacity="1" transform="translate(181.02906678757293,0)"><line stroke="currentColor" y2="6"/><text fill="currentColor" y="9" dy="0.71em">1973</text></g><g class="tick" opacity="1" transform="translate(191.9702629711402,0)"><line stroke="currentColor" y2="6"/><text fill="currentColor" y="9" dy="0.71em">1974</text></g><g class="tick" opacity="1" transform="translate(202.91145915470744,0)"><line stroke="currentColor" y2="6"/><text fill="currentColor" y="9" dy="0.71em">1975</text></g><g class="tick" opacity="1" transform="translate(213.85265533827473,0)"><line stroke="currentColor" y2="6"/><text fill="currentColor" y="9" dy="0.71em">1976</text></g><g class="tick" opacity="1" transform="translate(224.793851521842,0)"><line stroke="currentColor" y2="6"/><text fill="currentColor" y="9" dy="0.71em">1977</text></g><g class="tick" opacity="1" transform="translate(235.73504770540924,0)"><line stroke="currentColor" y2="6"/><text fill="currentColor" y="9" dy="0.71em">1978</text></g><g class="tick" opacity="1" transform="translate(246.6762438889765,0)"><line stroke="currentColor" y2="6"/><text fill="currentColor" y="9" dy="0.71em">1979</text></g><g class="tick" opacity="1" transform="translate(257.61744007254373,0)"><line stroke="currentColor" y2="6"/><text fill="currentColor" y="9" dy="0.71em">1980</text></g><g class="tick" opacity="1" transform="translate(268.558636256111,0)"><line stroke="currentColor" y2="6"/><text fill="currentColor" y="9" dy="0.71em">1981</text></g><g class="tick" opacity="1" transform="translate(279.4998324396783,0)"><line stroke="currentColor" y2="6"/><text fill="currentColor" y="9" dy="0.71em">1982</text></g><g class="tick" opacity="1" transform="translate(290.44102862324553,0)"><line stroke="currentColor" y2="6"/><text fill="currentColor" y="9" dy="0.71em">1983</text></g><g class="tick" opacity="1" transform="translate(301.3822248068128,0)"><line stroke="currentColor" y2="6"/><text fill="currentColor" y="9" dy="0.71em">1984</text></g><g class="tick" opacity="1" transform="translate(312.3234209903801,0)"><line stroke="currentColor" y2="6"/><text fill="currentColor" y="9" dy="0.71em">1985</text></g><g class="tick" opacity="1" transform="translate(323.26461717394733,0)"><line stroke="currentColor" y2="6"/><text fill="currentColor" y="9" dy="0.71em">1986</text></g><g class="tick" opacity="1" transform="translate(334.2058133575146,0)"><line stroke="currentColor" y2="6"/><text fill="currentColor" y="9" dy="0.71em">1987</text></g><g class="tick" opacity="1" transform="translate(345.14700954108184,0)"><line stroke="currentColor" y2="6"/><text fill="currentColor" y="9" dy="0.71em">1988</text></g><g class="tick" opacity="1" transform="translate(356.08820572464913,0)"><line stroke="currentColor" y2="6"/><text fill="currentColor" y="9" dy="0.71em">1989</text></g><g class="tick" opacity="1" transform="translate(367.0294019082164,0)"><line stroke="currentColor" y2="6"/><text fill="currentColor" y="9" dy="0.71em">1990</text></g><g class="tick" opacity="1" transform="translate(377.97059809178364,0)"><line stroke="currentColor" y2="6"/><text fill="currentColor" y="9" dy="0.71em">1991</text></g><g class="tick" opacity="1" transform="translate(388.9117942753509,0)"><line stroke="currentColor" y2="6"/><text fill="currentColor" y="9" dy="0.71em">1992</text></g><g class="tick" opacity="1" transform="translate(399.85299045891816,0)"><line stroke="currentColor" y2="6"/><text fill="currentColor" y="9" dy="0.71em">1993</text></g><g class="tick" opacity="1" transform="translate(410.79418664248544,0)"><line stroke="currentColor" y2="6"/><text fill="currentColor" y="9" dy="0.71em">1994</text></g><g class="tick" opacity="1" transform="translate(421.7353828260527,0)"><line stroke="currentColor" y2="6"/><text fill="currentColor" y="9" dy="0.71em">1995</text></g><g class="tick" opacity="1" transform="translate(432.67657900961996,0)"><line stroke="currentColor" y2="6"/><text fill="currentColor" y="9" dy="0.71em">1996</text></g><g class="tick" opacity="1" transform="translate(443.61777519318724,0)"><line stroke="currentColor" y2="6"/><text fill="currentColor" y="9" dy="0.71em">1997</text></g><g class="tick" opacity="1" transform="translate(454.55897137675447,0)"><line stroke="currentColor" y2="6"/><text fill="currentColor" y="9" dy="0.71em">1998</text></g><g class="tick" opacity="1" transform="translate(465.50016756032176,0)"><line stroke="currentColor" y2="6"/><text fill="currentColor" y="9" dy="0.71em">1999</text></g><g class="tick" opacity="1" transform="translate(476.44136374388904,0)"><line stroke="currentColor" y2="6"/><text fill="currentColor" y="9" dy="0.71em">2000</text></g><g class="tick" opacity="1" transform="translate(487.38255992745627,0)"><line stroke="currentColor" y2="6"/><text fill="currentColor" y="9" dy="0.71em">2001</text></g><g class="tick" opacity="1" transform="translate(498.32375611102356,0)"><line stroke="currentColor" y2="6"/><text fill="currentColor" y="9" dy="0.71em">2002</text></g><g class="tick" opacity="1" transform="translate(509.2649522945908,0)"><line stroke="currentColor" y2="6"/><text fill="currentColor" y="9" dy="0.71em">2003</text></g><g class="tick" opacity="1" transform="translate(520.2061484781581,0)"><line stroke="currentColor" y2="6"/><text fill="currentColor" y="9" dy="0.71em">2004</text></g><g class="tick" opacity="1" transform="translate(531.1473446617252,0)"><line stroke="currentColor" y2="6"/><text fill="currentColor" y="9" dy="0.71em">2005</text></g><g class="tick" opacity="1" transform="translate(542.0885408452926,0)"><line stroke="currentColor" y2="6"/><text fill="currentColor" y="9" dy="0.71em">2006</text></g><g class="tick" opacity="1" transform="translate(553.0297370288598,0)"><line stroke="currentColor" y2="6"/><text fill="currentColor" y="9" dy="0.71em">2007</text></g><g class="tick" opacity="1" transform="translate(563.9709332124272,0)"><line stroke="currentColor" y2="6"/><text fill="currentColor" y="9" dy="0.71em">2008</text></g><g class="tick" opacity="1" transform="translate(574.9121293959944,0)"><line stroke="currentColor" y2="6"/><text fill="currentColor" y="9" dy="0.71em">2009</text></g><g class="tick" opacity="1" transform="translate(585.8533255795616,0)"><line stroke="currentColor" y2="6"/><text fill="currentColor" y="9" dy="0.71em">2010</text></g><g class="tick" opacity="1" transform="translate(596.794521763129,0)"><line stroke="currentColor" y2="6"/><text fill="currentColor" y="9" dy="0.71em">2011</text></g><g class="tick" opacity="1" transform="translate(607.7357179466961,0)"><line stroke="currentColor" y2="6"/><text fill="currentColor" y="9" dy="0.71em">2012</text></g><g class="tick" opacity="1" transform="translate(618.6769141302635,0)"><line stroke="currentColor" y2="6"/><text fill="currentColor" y="9" dy="0.71em">2013</text></g><g class="tick" opacity="1" transform="translate(629.6181103138307,0)"><line stroke="currentColor" y2="6"/><text fill="currentColor" y="9" dy="0.71em">2014</text></g><g class="tick" opacity="1" transform="translate(640.5593064973979,0)"><line stroke="currentColor" y2="6"/><text fill="currentColor" y="9" dy="0.71em">2015</text></g><g class="tick" opacity="1" transform="translate(651.5005026809653,0)"><line stroke="currentColor" y2="6"/><text fill="currentColor" y="9" dy="0.71em">2016</text></g><g class="tick" opacity="1" transform="translate(662.4416988645324,0)"><line stroke="currentColor" y2="6"/><text fill="currentColor" y="9" dy="0.71em">2017</text></g><g class="tick" opacity="1" transform="translate(673.3828950480998,0)"><line stroke="currentColor" y2="6"/><text fill="currentColor" y="9" dy="0.71em">2018</text></g><g class="tick" opacity="1" transform="translate(684.324091231667,0)"><line stroke="currentColor" y2="6"/><text fill="currentColor" y="9" dy="0.71em">2019</text></g><g class="tick" opacity="1" transform="translate(695.2652874152342,0)"><line stroke="currentColor" y2="6"/><text fill="currentColor" y="9" dy="0.71em">2020</text></g><g class="tick" opacity="1" transform="translate(706.2064835988016,0)"><line stroke="currentColor" y2="6"/><text fill="currentColor" y="9" dy="0.71em">2021</text></g><g class="tick" opacity="1" transform="translate(717.1476797823688,0)"><line stroke="currentColor" y2="6"/><text fill="currentColor" y="9" dy="0.71em">2022</text></g><g class="tick" opacity="1" transform="translate(728.0888759659362,0)"><line stroke="currentColor" y2="6"/><text fill="currentColor" y="9" dy="0.71em">2023</text></g><g class="tick" opacity="1" transform="translate(739.0300721495033,0)"><line stroke="currentColor" y2="6"/><text fill="currentColor" y="9" dy="0.71em">2024</text></g><text x="745" y="-4" text-anchor="end" style="font-family: Arial, sans-serif; font-size: 12px; fill: rgb(123, 123, 123); font-weight: bold;">year</text></g><g id="yAxis" fill="none" font-size="10" font-family="sans-serif" text-anchor="end"><path class="domain" stroke="currentColor" d="M-6,560H0V0H-6"/><g class="tick" opacity="1" transform="translate(0,560)"><line stroke="currentColor" x2="-6"/><text fill="currentColor" x="-9" dy="0.32em">0</text></g><g class="tick" opacity="1" transform="translate(0,513.3333333333333)"><line stroke="currentColor" x2="-6"/><text fill="currentColor" x="-9" dy="0.32em">1,000</text></g><g class="tick" opacity="1" transform="translate(0,466.6666666666667)"><line stroke="currentColor" x2="-6"/><text fill="currentColor" x="-9" dy="0.32em">2,000</text></g><g class="tick" opacity="1" transform="translate(0,420)"><line stroke="currentColor" x2="-6"/><text fill="currentColor" x="-9" dy="0.32em">3,000</text></g><g class="tick" opacity="1" transform="translate(0,373.33333333333337)"><line stroke="currentColor" x2="-6"/><text fill="currentColor" x="-9" dy="0.32em">4,000</text></g><g class="tick" opacity="1" transform="translate(0,326.66666666666663)"><line stroke="currentColor" x2="-6"/><text fill="currentColor" x="-9" dy="0.32em">5,000</text></g><g class="tick" opacity="1" transform="translate(0,280)"><line stroke="currentColor" x2="-6"/><text fill="currentColor" x="-9" dy="0.32em">6,000</text></g><g class="tick" opacity="1" transform="translate(0,233.33333333333331)"><line stroke="currentColor" x2="-6"/><text fill="currentColor" x="-9" dy="0.32em">7,000</text></g><g class="tick" opacity="1" transform="translate(0,186.66666666666669)"><line stroke="currentColor" x2="-6"/><text fill="currentColor" x="-9" dy="0.32em">8,000</text></g><g class="tick" opacity="1" transform="translate(0,140)"><line stroke="currentColor" x2="-6"/><text fill="currentColor" x="-9" dy="0.32em">9,000</text></g><g class="tick" opacity="1" transform="translate(0,93.33333333333331)"><line stroke="currentColor" x2="-6"/><text fill="currentColor" x="-9" dy="0.32em">10,000</text></g><g class="tick" opacity="1" transform="translate(0,46.666666666666686)"><line stroke="currentColor" x2="-6"/><text fill="currentColor" x="-9" dy="0.32em">11,000</text></g><g class="tick" opacity="1" transform="translate(0,0)"><line stroke="currentColor" x2="-6"/><text fill="currentColor" x="-9" dy="0.32em">12,000</text></g><text x="4" text-anchor="start" dominant-baseline="hanging" style="font-family: Arial, sans-serif; font-size: 12px; fill: rgb(123, 123, 123); font-weight: bold;">bigger_set [sum]</text></g></g><text y="4" x="4" style="font-family: Arial, sans-serif; font-size: 12px; fill: black; font-weight: bold; dominant-baseline: hanging;"/></g></g></svg>