<svg xmlns="http://www.w3.org/2000/svg" width="805" height="600"><rect width="805" height="600" x="0" y="0" fill="#FFFFFF" id="background"/><g transform="translate(10,10)" id="visualization"><g><rect x="390" y="55" height="13.4375" width="5" fill="black"><title>Christmas: 1</title></rect><rect x="390" y="73.4375" height="13.4375" width="5" fill="black"><title>Service Packs: 1</title></rect><rect x="0" y="65.00000000000006" height="13.4375" width="5" fill="black"><title>Super Heroes Marvel: 1</title></rect><rect x="390" y="91.875" height="13.4375" width="5" fill="black"><title>Spider-Man: 1</title></rect><rect x="780" y="0" height="13.4375" width="5" fill="black"><title>WeDo: 1</title></rect><rect x="780" y="18.4375" height="13.4375" width="5" fill="black"><title>Technic: 1</title></rect><rect x="780" y="36.875" height="13.4375" width="5" fill="black"><title>eLAB: 1</title></rect><rect x="780" y="55.3125" height="13.4375" width="5" fill="black"><title>Legoville: 1</title></rect><rect x="780" y="73.75" height="13.4375" width="5" fill="black"><title>The LEGO Batman Movie: 1</title></rect><rect x="780" y="92.1875" height="13.4375" width="5" fill="black"><title>Spidey and His Amazing Friends: 1</title></rect><rect x="780" y="110.625" height="13.4375" width="5" fill="black"><title>Doc McStuffins: 1</title></rect><rect x="780" y="129.0625" height="13.4375" width="5" fill="black"><title>RCX: 1</title></rect><rect x="780" y="147.5" height="13.4375" width="5" fill="black"><title>Control Lab: 1</title></rect><rect x="780" y="165.9375" height="13.4375" width="5" fill="black"><title>My Town: 1</title></rect><rect x="780" y="184.375" height="13.4375" width="5" fill="black"><title>UCS: 1</title></rect><rect x="780" y="202.8125" height="13.4375" width="5" fill="black"><title>Mickey &amp; Friends: 1</title></rect><rect x="780" y="221.25" height="13.4375" width="5" fill="black"><title>Marvel: 1</title></rect><rect x="780" y="239.6875" height="13.4375" width="5" fill="black"><title>NXT: 1</title></rect><rect x="780" y="258.125" height="13.4375" width="5" fill="black"><title>Disney Princess: 1</title></rect><rect x="780" y="276.5625" height="13.4375" width="5" fill="black"><title>Harry Potter: 1</title></rect><rect x="780" y="295" height="13.4375" width="5" fill="black"><title>Jake and the Never Land Pirates: 1</title></rect><rect x="780" y="313.4375" height="13.4375" width="5" fill="black"><title>Friends: 1</title></rect><rect x="780" y="331.875" height="13.4375" width="5" fill="black"><title>Winnie the Pooh: 1</title></rect><rect x="780" y="350.3125" height="13.4375" width="5" fill="black"><title>Pirates: 1</title></rect><rect x="780" y="368.75" height="13.4375" width="5" fill="black"><title>Toy Story: 1</title></rect><rect x="780" y="387.1875" height="13.4375" width="5" fill="black"><title>Miles From Tomorrowland: 1</title></rect><rect x="780" y="405.625" height="13.4375" width="5" fill="black"><title>Clikits: 1</title></rect><rect x="780" y="424.0625" height="13.4375" width="5" fill="black"><title>Planes: 1</title></rect><rect x="780" y="442.5" height="13.4375" width="5" fill="black"><title>Classic Basic: 1</title></rect><rect x="780" y="460.9375" height="13.4375" width="5" fill="black"><title>Cars: 1</title></rect><rect x="780" y="479.375" height="13.4375" width="5" fill="black"><title>Castle: 1</title></rect><rect x="780" y="497.8125" height="13.4375" width="5" fill="black"><title>Belville: 1</title></rect><rect x="780" y="516.25" height="13.4375" width="5" fill="black"><title>Star Wars: 1</title></rect><rect x="780" y="534.6875" height="13.4375" width="5" fill="black"><title>City: 1</title></rect><rect x="390" y="110.3125" height="26.875" width="5" fill="black"><title>Technic: 2</title></rect><rect x="390" y="142.1875" height="26.875" width="5" fill="black"><title>Town: 2</title></rect><rect x="0" y="83.43750000000006" height="26.874999999999943" width="5" fill="black"><title>Super Heroes DC: 2</title></rect><rect x="390" y="174.0625" height="26.875" width="5" fill="black"><title>Batman: 2</title></rect><rect x="780" y="553.125" height="26.875" width="5" fill="black"><title>Creator: 2</title></rect><rect x="390" y="205.9375" height="40.3125" width="5" fill="black"><title>Mindstorms: 3</title></rect><rect x="0" y="115.3125" height="80.62499999999997" width="5" fill="black"><title>Educational and Dacta: 6</title></rect><rect x="390" y="251.25" height="120.9375" width="5" fill="black"><title>Disney: 9</title></rect><rect x="0" y="200.93749999999997" height="147.81250000000003" width="5" fill="black"><title>Duplo: 11</title></rect><rect x="390" y="377.1875" height="147.8125" width="5" fill="black"><title>Advent: 11</title></rect><rect x="0" y="353.75" height="161.25" width="5" fill="black"><title>Seasonal: 12</title></rect></g><g fill="none" stroke-opacity="1"><g style="mix-blend-mode: multiply;"><path d="M5,360.46875C197.5,360.46875,197.5,61.71875,390,61.71875" stroke="#2ca02c" stroke-width="13.4375"/><title>Seasonal → Christmas: 1</title></g><g style="mix-blend-mode: multiply;"><path d="M5,175.78125C197.5,175.78125,197.5,226.09375,390,226.09375" stroke="#ff7f0e" stroke-width="40.3125"/><title>Educational and Dacta → Mindstorms: 3</title></g><g style="mix-blend-mode: multiply;"><path d="M5,122.03125C197.5,122.03125,197.5,80.15625,390,80.15625" stroke="#ff7f0e" stroke-width="13.4375"/><title>Educational and Dacta → Service Packs: 1</title></g><g style="mix-blend-mode: multiply;"><path d="M5,142.1875C197.5,142.1875,197.5,123.75,390,123.75" stroke="#ff7f0e" stroke-width="26.875"/><title>Educational and Dacta → Technic: 2</title></g><g style="mix-blend-mode: multiply;"><path d="M5,214.37499999999997C197.5,214.37499999999997,197.5,155.625,390,155.625" stroke="#1f77b4" stroke-width="26.875"/><title>Duplo → Town: 2</title></g><g style="mix-blend-mode: multiply;"><path d="M5,96.87500000000006C197.5,96.87500000000006,197.5,187.5,390,187.5" stroke="#d62728" stroke-width="26.875"/><title>Super Heroes DC → Batman: 2</title></g><g style="mix-blend-mode: multiply;"><path d="M5,71.71875000000006C197.5,71.71875000000006,197.5,98.59375,390,98.59375" stroke="#9467bd" stroke-width="13.4375"/><title>Super Heroes Marvel → Spider-Man: 1</title></g><g style="mix-blend-mode: multiply;"><path d="M5,288.28125C197.5,288.28125,197.5,311.71875,390,311.71875" stroke="#1f77b4" stroke-width="120.9375"/><title>Duplo → Disney: 9</title></g><g style="mix-blend-mode: multiply;"><path d="M5,441.09375C197.5,441.09375,197.5,451.09375,390,451.09375" stroke="#2ca02c" stroke-width="147.8125"/><title>Seasonal → Advent: 11</title></g><g style="mix-blend-mode: multiply;"><path d="M395,61.71875C587.5,61.71875,587.5,559.84375,780,559.84375" stroke="#7f7f7f" stroke-width="13.4375"/><title>Christmas → Creator: 1</title></g><g style="mix-blend-mode: multiply;"><path d="M395,212.65625C587.5,212.65625,587.5,6.71875,780,6.71875" stroke="#17becf" stroke-width="13.4375"/><title>Mindstorms → WeDo: 1</title></g><g style="mix-blend-mode: multiply;"><path d="M395,80.15625C587.5,80.15625,587.5,25.15625,780,25.15625" stroke="#cccccc" stroke-width="13.4375"/><title>Service Packs → Technic: 1</title></g><g style="mix-blend-mode: multiply;"><path d="M395,117.03125C587.5,117.03125,587.5,43.59375,780,43.59375" stroke="#cccccc" stroke-width="13.4375"/><title>Technic → eLAB: 1</title></g><g style="mix-blend-mode: multiply;"><path d="M395,148.90625C587.5,148.90625,587.5,62.03125,780,62.03125" stroke="#cccccc" stroke-width="13.4375"/><title>Town → Legoville: 1</title></g><g style="mix-blend-mode: multiply;"><path d="M395,180.78125C587.5,180.78125,587.5,80.46875,780,80.46875" stroke="#e377c2" stroke-width="13.4375"/><title>Batman → The LEGO Batman Movie: 1</title></g><g style="mix-blend-mode: multiply;"><path d="M395,98.59375C587.5,98.59375,587.5,98.90625,780,98.90625" stroke="#cccccc" stroke-width="13.4375"/><title>Spider-Man → Spidey and His Amazing Friends: 1</title></g><g style="mix-blend-mode: multiply;"><path d="M395,257.96875C587.5,257.96875,587.5,117.34375,780,117.34375" stroke="#bcbd22" stroke-width="13.4375"/><title>Disney → Doc McStuffins: 1</title></g><g style="mix-blend-mode: multiply;"><path d="M395,226.09375C587.5,226.09375,587.5,135.78125,780,135.78125" stroke="#17becf" stroke-width="13.4375"/><title>Mindstorms → RCX: 1</title></g><g style="mix-blend-mode: multiply;"><path d="M395,130.46875C587.5,130.46875,587.5,154.21875,780,154.21875" stroke="#cccccc" stroke-width="13.4375"/><title>Technic → Control Lab: 1</title></g><g style="mix-blend-mode: multiply;"><path d="M395,162.34375C587.5,162.34375,587.5,172.65625,780,172.65625" stroke="#cccccc" stroke-width="13.4375"/><title>Town → My Town: 1</title></g><g style="mix-blend-mode: multiply;"><path d="M395,194.21875C587.5,194.21875,587.5,191.09375,780,191.09375" stroke="#e377c2" stroke-width="13.4375"/><title>Batman → UCS: 1</title></g><g style="mix-blend-mode: multiply;"><path d="M395,271.40625C587.5,271.40625,587.5,209.53125,780,209.53125" stroke="#bcbd22" stroke-width="13.4375"/><title>Disney → Mickey &amp; Friends: 1</title></g><g style="mix-blend-mode: multiply;"><path d="M395,383.90625C587.5,383.90625,587.5,227.96875,780,227.96875" stroke="#8c564b" stroke-width="13.4375"/><title>Advent → Marvel: 1</title></g><g style="mix-blend-mode: multiply;"><path d="M395,239.53125C587.5,239.53125,587.5,246.40625,780,246.40625" stroke="#17becf" stroke-width="13.4375"/><title>Mindstorms → NXT: 1</title></g><g style="mix-blend-mode: multiply;"><path d="M395,284.84375C587.5,284.84375,587.5,264.84375,780,264.84375" stroke="#bcbd22" stroke-width="13.4375"/><title>Disney → Disney Princess: 1</title></g><g style="mix-blend-mode: multiply;"><path d="M395,397.34375C587.5,397.34375,587.5,283.28125,780,283.28125" stroke="#8c564b" stroke-width="13.4375"/><title>Advent → Harry Potter: 1</title></g><g style="mix-blend-mode: multiply;"><path d="M395,298.28125C587.5,298.28125,587.5,301.71875,780,301.71875" stroke="#bcbd22" stroke-width="13.4375"/><title>Disney → Jake and the Never Land Pirates: 1</title></g><g style="mix-blend-mode: multiply;"><path d="M395,410.78125C587.5,410.78125,587.5,320.15625,780,320.15625" stroke="#8c564b" stroke-width="13.4375"/><title>Advent → Friends: 1</title></g><g style="mix-blend-mode: multiply;"><path d="M395,311.71875C587.5,311.71875,587.5,338.59375,780,338.59375" stroke="#bcbd22" stroke-width="13.4375"/><title>Disney → Winnie the Pooh: 1</title></g><g style="mix-blend-mode: multiply;"><path d="M395,424.21875C587.5,424.21875,587.5,357.03125,780,357.03125" stroke="#8c564b" stroke-width="13.4375"/><title>Advent → Pirates: 1</title></g><g style="mix-blend-mode: multiply;"><path d="M395,325.15625C587.5,325.15625,587.5,375.46875,780,375.46875" stroke="#bcbd22" stroke-width="13.4375"/><title>Disney → Toy Story: 1</title></g><g style="mix-blend-mode: multiply;"><path d="M395,518.28125C587.5,518.28125,587.5,573.28125,780,573.28125" stroke="#8c564b" stroke-width="13.4375"/><title>Advent → Creator: 1</title></g><g style="mix-blend-mode: multiply;"><path d="M395,338.59375C587.5,338.59375,587.5,393.90625,780,393.90625" stroke="#bcbd22" stroke-width="13.4375"/><title>Disney → Miles From Tomorrowland: 1</title></g><g style="mix-blend-mode: multiply;"><path d="M395,437.65625C587.5,437.65625,587.5,412.34375,780,412.34375" stroke="#8c564b" stroke-width="13.4375"/><title>Advent → Clikits: 1</title></g><g style="mix-blend-mode: multiply;"><path d="M395,352.03125C587.5,352.03125,587.5,430.78125,780,430.78125" stroke="#bcbd22" stroke-width="13.4375"/><title>Disney → Planes: 1</title></g><g style="mix-blend-mode: multiply;"><path d="M395,451.09375C587.5,451.09375,587.5,449.21875,780,449.21875" stroke="#8c564b" stroke-width="13.4375"/><title>Advent → Classic Basic: 1</title></g><g style="mix-blend-mode: multiply;"><path d="M395,365.46875C587.5,365.46875,587.5,467.65625,780,467.65625" stroke="#bcbd22" stroke-width="13.4375"/><title>Disney → Cars: 1</title></g><g style="mix-blend-mode: multiply;"><path d="M395,464.53125C587.5,464.53125,587.5,486.09375,780,486.09375" stroke="#8c564b" stroke-width="13.4375"/><title>Advent → Castle: 1</title></g><g style="mix-blend-mode: multiply;"><path d="M395,477.96875C587.5,477.96875,587.5,504.53125,780,504.53125" stroke="#8c564b" stroke-width="13.4375"/><title>Advent → Belville: 1</title></g><g style="mix-blend-mode: multiply;"><path d="M395,491.40625C587.5,491.40625,587.5,522.96875,780,522.96875" stroke="#8c564b" stroke-width="13.4375"/><title>Advent → Star Wars: 1</title></g><g style="mix-blend-mode: multiply;"><path d="M395,504.84375C587.5,504.84375,587.5,541.40625,780,541.40625" stroke="#8c564b" stroke-width="13.4375"/><title>Advent → City: 1</title></g></g><g><text x="399" y="61.71875" text-anchor="start"><tspan alignment-baseline="middle" x="399" style="font-family: Arial, sans-serif; font-size: 10px; fill: black; font-weight: bold;">Christmas</tspan></text><text x="399" y="80.15625" text-anchor="start"><tspan alignment-baseline="middle" x="399" style="font-family: Arial, sans-serif; font-size: 10px; fill: black; font-weight: bold;">Service Packs</tspan></text><text x="9" y="71.71875000000006" text-anchor="start"><tspan alignment-baseline="middle" x="9" style="font-family: Arial, sans-serif; font-size: 10px; fill: black; font-weight: bold;">Super Heroes Marvel</tspan></text><text x="399" y="98.59375" text-anchor="start"><tspan alignment-baseline="middle" x="399" style="font-family: Arial, sans-serif; font-size: 10px; fill: black; font-weight: bold;">Spider-Man</tspan></text><text x="776" y="6.71875" text-anchor="end"><tspan alignment-baseline="middle" x="776" style="font-family: Arial, sans-serif; font-size: 10px; fill: black; font-weight: bold;">WeDo</tspan></text><text x="776" y="25.15625" text-anchor="end"><tspan alignment-baseline="middle" x="776" style="font-family: Arial, sans-serif; font-size: 10px; fill: black; font-weight: bold;">Technic</tspan></text><text x="776" y="43.59375" text-anchor="end"><tspan alignment-baseline="middle" x="776" style="font-family: Arial, sans-serif; font-size: 10px; fill: black; font-weight: bold;">eLAB</tspan></text><text x="776" y="62.03125" text-anchor="end"><tspan alignment-baseline="middle" x="776" style="font-family: Arial, sans-serif; font-size: 10px; fill: black; font-weight: bold;">Legoville</tspan></text><text x="776" y="80.46875" text-anchor="end"><tspan alignment-baseline="middle" x="776" style="font-family: Arial, sans-serif; font-size: 10px; fill: black; font-weight: bold;">The LEGO Batman Movie</tspan></text><text x="776" y="98.90625" text-anchor="end"><tspan alignment-baseline="middle" x="776" style="font-family: Arial, sans-serif; font-size: 10px; fill: black; font-weight: bold;">Spidey and His Amazing Friends</tspan></text><text x="776" y="117.34375" text-anchor="end"><tspan alignment-baseline="middle" x="776" style="font-family: Arial, sans-serif; font-size: 10px; fill: black; font-weight: bold;">Doc McStuffins</tspan></text><text x="776" y="135.78125" text-anchor="end"><tspan alignment-baseline="middle" x="776" style="font-family: Arial, sans-serif; font-size: 10px; fill: black; font-weight: bold;">RCX</tspan></text><text x="776" y="154.21875" text-anchor="end"><tspan alignment-baseline="middle" x="776" style="font-family: Arial, sans-serif; font-size: 10px; fill: black; font-weight: bold;">Control Lab</tspan></text><text x="776" y="172.65625" text-anchor="end"><tspan alignment-baseline="middle" x="776" style="font-family: Arial, sans-serif; font-size: 10px; fill: black; font-weight: bold;">My Town</tspan></text><text x="776" y="191.09375" text-anchor="end"><tspan alignment-baseline="middle" x="776" style="font-family: Arial, sans-serif; font-size: 10px; fill: black; font-weight: bold;">UCS</tspan></text><text x="776" y="209.53125" text-anchor="end"><tspan alignment-baseline="middle" x="776" style="font-family: Arial, sans-serif; font-size: 10px; fill: black; font-weight: bold;">Mickey &amp; Friends</tspan></text><text x="776" y="227.96875" text-anchor="end"><tspan alignment-baseline="middle" x="776" style="font-family: Arial, sans-serif; font-size: 10px; fill: black; font-weight: bold;">Marvel</tspan></text><text x="776" y="246.40625" text-anchor="end"><tspan alignment-baseline="middle" x="776" style="font-family: Arial, sans-serif; font-size: 10px; fill: black; font-weight: bold;">NXT</tspan></text><text x="776" y="264.84375" text-anchor="end"><tspan alignment-baseline="middle" x="776" style="font-family: Arial, sans-serif; font-size: 10px; fill: black; font-weight: bold;">Disney Princess</tspan></text><text x="776" y="283.28125" text-anchor="end"><tspan alignment-baseline="middle" x="776" style="font-family: Arial, sans-serif; font-size: 10px; fill: black; font-weight: bold;">Harry Potter</tspan></text><text x="776" y="301.71875" text-anchor="end"><tspan alignment-baseline="middle" x="776" style="font-family: Arial, sans-serif; font-size: 10px; fill: black; font-weight: bold;">Jake and the Never Land Pirates</tspan></text><text x="776" y="320.15625" text-anchor="end"><tspan alignment-baseline="middle" x="776" style="font-family: Arial, sans-serif; font-size: 10px; fill: black; font-weight: bold;">Friends</tspan></text><text x="776" y="338.59375" text-anchor="end"><tspan alignment-baseline="middle" x="776" style="font-family: Arial, sans-serif; font-size: 10px; fill: black; font-weight: bold;">Winnie the Pooh</tspan></text><text x="776" y="357.03125" text-anchor="end"><tspan alignment-baseline="middle" x="776" style="font-family: Arial, sans-serif; font-size: 10px; fill: black; font-weight: bold;">Pirates</tspan></text><text x="776" y="375.46875" text-anchor="end"><tspan alignment-baseline="middle" x="776" style="font-family: Arial, sans-serif; font-size: 10px; fill: black; font-weight: bold;">Toy Story</tspan></text><text x="776" y="393.90625" text-anchor="end"><tspan alignment-baseline="middle" x="776" style="font-family: Arial, sans-serif; font-size: 10px; fill: black; font-weight: bold;">Miles From Tomorrowland</tspan></text><text x="776" y="412.34375" text-anchor="end"><tspan alignment-baseline="middle" x="776" style="font-family: Arial, sans-serif; font-size: 10px; fill: black; font-weight: bold;">Clikits</tspan></text><text x="776" y="430.78125" text-anchor="end"><tspan alignment-baseline="middle" x="776" style="font-family: Arial, sans-serif; font-size: 10px; fill: black; font-weight: bold;">Planes</tspan></text><text x="776" y="449.21875" text-anchor="end"><tspan alignment-baseline="middle" x="776" style="font-family: Arial, sans-serif; font-size: 10px; fill: black; font-weight: bold;">Classic Basic</tspan></text><text x="776" y="467.65625" text-anchor="end"><tspan alignment-baseline="middle" x="776" style="font-family: Arial, sans-serif; font-size: 10px; fill: black; font-weight: bold;">Cars</tspan></text><text x="776" y="486.09375" text-anchor="end"><tspan alignment-baseline="middle" x="776" style="font-family: Arial, sans-serif; font-size: 10px; fill: black; font-weight: bold;">Castle</tspan></text><text x="776" y="504.53125" text-anchor="end"><tspan alignment-baseline="middle" x="776" style="font-family: Arial, sans-serif; font-size: 10px; fill: black; font-weight: bold;">Belville</tspan></text><text x="776" y="522.96875" text-anchor="end"><tspan alignment-baseline="middle" x="776" style="font-family: Arial, sans-serif; font-size: 10px; fill: black; font-weight: bold;">Star Wars</tspan></text><text x="776" y="541.40625" text-anchor="end"><tspan alignment-baseline="middle" x="776" style="font-family: Arial, sans-serif; font-size: 10px; fill: black; font-weight: bold;">City</tspan></text><text x="399" y="123.75" text-anchor="start"><tspan alignment-baseline="middle" x="399" style="font-family: Arial, sans-serif; font-size: 10px; fill: black; font-weight: bold;">Technic</tspan></text><text x="399" y="155.625" text-anchor="start"><tspan alignment-baseline="middle" x="399" style="font-family: Arial, sans-serif; font-size: 10px; fill: black; font-weight: bold;">Town</tspan></text><text x="9" y="96.87500000000003" text-anchor="start"><tspan alignment-baseline="middle" x="9" style="font-family: Arial, sans-serif; font-size: 10px; fill: black; font-weight: bold;">Super Heroes DC</tspan></text><text x="399" y="187.5" text-anchor="start"><tspan alignment-baseline="middle" x="399" style="font-family: Arial, sans-serif; font-size: 10px; fill: black; font-weight: bold;">Batman</tspan></text><text x="776" y="566.5625" text-anchor="end"><tspan alignment-baseline="middle" x="776" style="font-family: Arial, sans-serif; font-size: 10px; fill: black; font-weight: bold;">Creator</tspan></text><text x="399" y="226.09375" text-anchor="start"><tspan alignment-baseline="middle" x="399" style="font-family: Arial, sans-serif; font-size: 10px; fill: black; font-weight: bold;">Mindstorms</tspan></text><text x="9" y="155.625" text-anchor="start"><tspan alignment-baseline="middle" x="9" style="font-family: Arial, sans-serif; font-size: 10px; fill: black; font-weight: bold;">Educational and Dacta</tspan></text><text x="399" y="311.71875" text-anchor="start"><tspan alignment-baseline="middle" x="399" style="font-family: Arial, sans-serif; font-size: 10px; fill: black; font-weight: bold;">Disney</tspan></text><text x="9" y="274.84375" text-anchor="start"><tspan alignment-baseline="middle" x="9" style="font-family: Arial, sans-serif; font-size: 10px; fill: black; font-weight: bold;">Duplo</tspan></text><text x="399" y="451.09375" text-anchor="start"><tspan alignment-baseline="middle" x="399" style="font-family: Arial, sans-serif; font-size: 10px; fill: black; font-weight: bold;">Advent</tspan></text><text x="9" y="434.375" text-anchor="start"><tspan alignment-baseline="middle" x="9" style="font-family: Arial, sans-serif; font-size: 10px; fill: black; font-weight: bold;">Seasonal</tspan></text></g><g><text x="392.5" y="51" text-anchor="middle" style="font-family: Arial, sans-serif; font-size: 12px; fill: rgb(123, 123, 123); font-weight: bold;">parent_name</text><text x="2.5" y="61.00000000000006" text-anchor="middle" style="font-family: Arial, sans-serif; font-size: 12px; fill: rgb(123, 123, 123); font-weight: bold;">grandparent_name</text><text x="782.5" y="-4" text-anchor="middle" style="font-family: Arial, sans-serif; font-size: 12px; fill: rgb(123, 123, 123); font-weight: bold;">child_name</text></g></g></svg>